<svg xmlns="http://www.w3.org/2000/svg" viewBox="0 0 107 107" width="107" height="107"><defs><clipPath clipPathUnits="userSpaceOnUse" id="cp1"><path d="M-573 -973L867 -973L867 3902L-573 3902Z"></path></clipPath></defs><style>
		tspan { white-space:pre }
		.shp0 { fill: #4d79ac;stroke: #4d79ac;stroke-width: 2 } 
		.shp1 { fill: #ffffff } 
	</style><g id="Find Work - 4 - Active" clip-path="url(#cp1)"><g id="Easy to Use"><g id="Control Schedule"><g id="Tasker/Active/Control"><g id="Tasker-Get the App-Active Copy"><g id="Group 7"><g id="Tasker-Get the App-Active"><path id="Oval" class="shp0" d="M53.5 106C82.49 106 106 82.49 106 53.5C106 24.51 82.49 1 53.5 1C24.5 1 1 24.51 1 53.5C1 82.49 24.5 106 53.5 106Z"></path></g><g id="Unknown-8"><path id="Shape" fill-rule="evenodd" class="shp1" d="M84 54.15C84 55.24 83.1 56.12 82 56.12L67.72 56.12C66.82 59.49 63.72 62 60 62C56.28 62 53.18 59.49 52.28 56.12L26 56.12C24.9 56.12 24 55.24 24 54.15C24 53.07 24.9 52.19 26 52.19L52.28 52.19C53.18 48.82 56.28 46.31 60 46.31C63.72 46.31 66.82 48.82 67.72 52.19L82 52.19C83.1 52.19 84 53.07 84 54.15ZM64 54.15C64 51.99 62.21 50.23 60 50.23C57.79 50.23 56 51.99 56 54.15C56 56.32 57.79 58.08 60 58.08C62.21 58.08 64 56.32 64 54.15Z"></path><path id="Shape" fill-rule="evenodd" class="shp1" d="M84 74.46C84 75.54 83.1 76.42 82 76.42L55.72 76.42C54.82 79.8 51.72 82.31 48 82.31C44.28 82.31 41.18 79.8 40.28 76.42L26 76.42C24.9 76.42 24 75.54 24 74.46C24 73.38 24.9 72.5 26 72.5L40.28 72.5C41.18 69.13 44.28 66.62 48 66.62C51.72 66.62 54.82 69.13 55.72 72.5L82 72.5C83.1 72.5 84 73.38 84 74.46ZM52 74.46C52 72.3 50.21 70.54 48 70.54C45.79 70.54 44 72.3 44 74.46C44 76.62 45.79 78.38 48 78.38C50.21 78.38 52 76.62 52 74.46Z"></path><path id="Shape" fill-rule="evenodd" class="shp1" d="M24 33.85C24 32.76 24.9 31.88 26 31.88L40.28 31.88C41.18 28.51 44.28 26 48 26C51.72 26 54.82 28.51 55.72 31.88L82 31.88C83.1 31.88 84 32.76 84 33.85C84 34.93 83.1 35.81 82 35.81L55.72 35.81C54.82 39.18 51.72 41.69 48 41.69C44.28 41.69 41.18 39.18 40.28 35.81L26 35.81C24.9 35.81 24 34.93 24 33.85ZM44 33.85C44 36.01 45.79 37.77 48 37.77C50.21 37.77 52 36.01 52 33.85C52 31.68 50.21 29.92 48 29.92C45.79 29.92 44 31.68 44 33.85Z"></path></g></g></g></g></g></g></g></svg>