<svg xmlns="http://www.w3.org/2000/svg" viewBox="0 0 128 127" width="128" height="127"><defs><clipPath clipPathUnits="userSpaceOnUse" id="cp1"><path d="M-1197 -2571L243 -2571L243 2814L-1197 2814Z"></path></clipPath></defs><style>
		tspan { white-space:pre }
		.shp0 { fill: #604d8d } 
		.shp1 { fill: none;stroke: #604d8d;stroke-width: 2 } 
	</style><g id="Hire Help - 4 - Static" clip-path="url(#cp1)"><g id="Hyer Standard"><g id="Group 18"><g id="Business/Static/Community"><g id="Group 36"><g id="Icons/Community"><g id="Unknown-19"><path id="Shape" fill-rule="evenodd" class="shp0" d="M100.5 86.74C100.5 87.44 99.93 88 99.23 88L73.77 88C73.07 88 72.5 87.44 72.5 86.74C72.5 80.84 76.28 75.81 81.58 73.84C79.51 72.34 78.16 69.94 78.16 67.23C78.16 62.69 81.9 59 86.5 59C91.1 59 94.84 62.69 94.84 67.23C94.84 69.94 93.49 72.34 91.42 73.84C96.72 75.81 100.5 80.84 100.5 86.74ZM86.5 72.94C89.7 72.94 92.3 70.38 92.3 67.23C92.3 64.07 89.7 61.51 86.5 61.51C83.3 61.51 80.7 64.07 80.7 67.23C80.7 70.38 83.3 72.94 86.5 72.94ZM97.88 85.49C97.25 79.85 92.39 75.45 86.5 75.45C80.61 75.45 75.75 79.85 75.12 85.49L97.88 85.49Z"></path><path id="Path" class="shp0" d="M82.48 91.25C77.2 95.21 70.98 97.3 64.49 97.3C58.01 97.3 51.8 95.21 46.52 91.26C45.94 90.83 45.14 90.97 44.74 91.58C44.33 92.18 44.46 93.03 45.04 93.46C50.75 97.74 57.48 100 64.49 100C71.51 100 78.25 97.73 83.96 93.45C84.54 93.02 84.67 92.17 84.26 91.57C83.85 90.96 83.06 90.82 82.48 91.25Z"></path><path id="Path" class="shp0" d="M77.25 38.47C85.14 42.12 91.23 48.92 93.96 57.11C94.15 57.66 94.65 58 95.2 58C95.33 58 95.47 57.98 95.61 57.93C96.29 57.71 96.66 56.97 96.43 56.3C93.47 47.43 86.88 40.07 78.35 36.12C77.7 35.82 76.92 36.1 76.62 36.75C76.32 37.4 76.6 38.17 77.25 38.47Z"></path><path id="Path" class="shp0" d="M32.39 57.93C32.53 57.98 32.66 58 32.8 58C33.35 58 33.85 57.66 34.03 57.11C36.77 48.91 42.86 42.12 50.75 38.47C51.4 38.17 51.68 37.4 51.38 36.75C51.08 36.1 50.3 35.82 49.65 36.12C41.12 40.07 34.53 47.42 31.57 56.3C31.34 56.97 31.71 57.71 32.39 57.93Z"></path><path id="Shape" fill-rule="evenodd" class="shp0" d="M54.23 88L28.77 88C28.07 88 27.5 87.44 27.5 86.74C27.5 80.78 31.36 75.7 36.75 73.78L36.48 73.78C34.46 72.28 33.16 69.9 33.16 67.23C33.16 62.69 36.9 59 41.5 59C46.1 59 49.84 62.69 49.84 67.23C49.84 69.9 48.54 72.28 46.52 73.78L46.25 73.78C51.64 75.7 55.5 80.78 55.5 86.74C55.5 87.44 54.93 88 54.23 88ZM41.5 72.94C44.7 72.94 47.3 70.38 47.3 67.23C47.3 64.07 44.7 61.51 41.5 61.51C38.3 61.51 35.7 64.07 35.7 67.23C35.7 70.38 38.3 72.94 41.5 72.94ZM52.88 85.49C52.25 79.85 47.39 75.45 41.5 75.45C35.61 75.45 30.75 79.85 30.12 85.49L52.88 85.49Z"></path><path id="Shape" fill-rule="evenodd" class="shp0" d="M59.57 42.84C57.51 41.34 56.16 38.94 56.16 36.23C56.16 31.69 59.9 28 64.5 28C69.1 28 72.84 31.69 72.84 36.23C72.84 38.94 71.49 41.34 69.43 42.84C74.72 44.81 78.5 49.84 78.5 55.74C78.5 56.44 77.93 57 77.23 57L51.77 57C51.07 57 50.5 56.44 50.5 55.74C50.5 49.84 54.28 44.81 59.57 42.84ZM64.5 41.94C67.7 41.94 70.3 39.38 70.3 36.23C70.3 33.07 67.7 30.51 64.5 30.51C61.3 30.51 58.7 33.07 58.7 36.23C58.7 39.38 61.3 41.94 64.5 41.94ZM53.12 54.49L75.88 54.49C75.25 48.85 70.39 44.45 64.5 44.45C58.61 44.45 53.75 48.85 53.12 54.49Z"></path></g></g><path id="Oval Copy 8" class="shp1" d="M64 126C98.52 126 126.5 98.02 126.5 63.5C126.5 28.98 98.52 1 64 1C29.48 1 1.5 28.98 1.5 63.5C1.5 98.02 29.48 126 64 126Z"></path></g></g></g></g></g></svg>