<svg xmlns="http://www.w3.org/2000/svg" viewBox="0 0 107 107" width="107" height="107"><defs><clipPath clipPathUnits="userSpaceOnUse" id="cp1"><path d="M-1191 -973L249 -973L249 3902L-1191 3902Z"></path></clipPath></defs><style>
		tspan { white-space:pre }
		.shp0 { fill: #4d79ac;stroke: #4d79ac;stroke-width: 2 } 
		.shp1 { fill: #ffffff } 
	</style><g id="Find Work - 4 - Active" clip-path="url(#cp1)"><g id="Easy to Use"><g id="Choose Tasks"><g id="Tasker/Active/Choose Tasks"><g id="Group 12 Copy"><g id="Tasker-Get Paid-Active"><g id="Group 27"><path id="Oval Copy 9" class="shp0" d="M53.5 106C82.49 106 106 82.49 106 53.5C106 24.51 82.49 1 53.5 1C24.5 1 1 24.51 1 53.5C1 82.49 24.5 106 53.5 106Z"></path></g></g><path id="Shape" fill-rule="evenodd" class="shp1" d="M40.07 46.58L55.89 39.29C53.67 34.69 54.82 29.21 58.71 25.85C62.59 22.49 68.27 22.06 72.63 24.79C77 27.53 78.99 32.77 77.52 37.65C76.05 42.52 71.47 45.85 66.29 45.81C63.58 45.81 60.95 44.86 58.88 43.12L42.76 50.58C43.8 53.21 43.8 56.13 42.76 58.76L58.16 65.48C60.29 63.31 63.23 62.09 66.3 62.09C72.66 62.09 77.84 67.39 77.84 73.89C77.84 80.38 72.66 85.68 66.3 85.68C59.94 85.68 54.76 80.4 54.76 73.89C54.75 72.4 55.03 70.93 55.56 69.54L40.14 62.81C36.4 66.54 30.57 67.33 25.94 64.74C21.31 62.15 19.03 56.83 20.39 51.77C21.74 46.71 26.39 43.18 31.71 43.16C34.85 43.16 37.86 44.39 40.07 46.58ZM31.64 61.35C35.53 61.36 38.69 58.22 38.71 54.34C38.71 50.47 35.58 47.33 31.71 47.32C27.84 47.31 24.7 50.44 24.68 54.31C24.66 58.17 27.78 61.33 31.64 61.35ZM59.29 73.98C59.29 77.84 62.44 81 66.31 81C70.17 81 73.32 77.84 73.32 73.98C73.32 70.12 70.17 66.97 66.31 66.97C62.44 66.97 59.29 70.12 59.29 73.98ZM59.29 34.69C59.29 37.54 61.01 40.1 63.64 41.18C66.27 42.26 69.3 41.65 71.3 39.62C73.3 37.6 73.88 34.57 72.76 31.95C71.65 29.33 69.07 27.64 66.22 27.68C62.37 27.71 59.27 30.84 59.29 34.69Z"></path></g></g></g></g></g></svg>