<svg xmlns="http://www.w3.org/2000/svg" viewBox="0 0 127 127" width="127" height="127"><defs><clipPath clipPathUnits="userSpaceOnUse" id="cp1"><path d="M-297 -4057L1143 -4057L1143 818L-297 818Z"></path></clipPath></defs><style>
		tspan { white-space:pre }
		.shp0 { fill: #4d79ac;stroke: #4d79ac;stroke-width: 2 } 
		.shp1 { fill: #ffffff } 
	</style><g id="Find Work - 4 - Active" clip-path="url(#cp1)"><g id="FAQ/Map"><g id="Group 11"><g id="Tasker/Active/FAQ"><g id="Group 9"><path id="Oval" class="shp0" d="M63.5 126C98.02 126 126 98.02 126 63.5C126 28.98 98.02 1 63.5 1C28.98 1 1 28.98 1 63.5C1 98.02 28.98 126 63.5 126Z"></path><g id="Combined Shape"><path id="Combined Shape" fill-rule="evenodd" class="shp1" d="M97.38 39.63L97.38 85.39C97.38 89.58 93.96 93.01 89.78 93.01L78.38 93.01L63.19 108.27L47.99 93.01L36.6 93.01C32.42 93.01 29 89.58 29 85.39L29 39.63C29 35.43 32.42 32 36.6 32L89.78 32C93.96 32 97.38 35.43 97.38 39.63ZM87.61 36.92L39.42 36.92C35.84 36.92 34.21 38.58 34.21 42.2L34.21 82.96C34.21 86.58 35.84 88.24 39.42 88.24L50.49 88.24L63.51 101.39L76.54 88.24L87.61 88.24C91.19 88.24 92.82 86.58 92.82 82.96L92.82 42.2C92.82 38.58 91.19 36.92 87.61 36.92Z"></path><path id="Combined Shape" class="shp1" d="M63.51 50.7C65.81 50.7 67.34 52.24 67.34 54.55C67.34 55.71 66.96 56.86 65.81 57.63C61.97 60.33 59.67 64.57 59.67 68.8L59.67 69.96L67.34 69.96L67.34 68.8C67.34 66.11 69.26 64.57 70.41 63.8C73.09 61.48 75.01 58.02 75.01 54.55C75.01 48.01 70.03 43 63.51 43C56.99 43 52 48.01 52 54.55L59.67 54.55C59.67 52.24 61.2 50.7 63.51 50.7ZM63.5 81.32C65.66 81.32 67.41 79.57 67.41 77.41C67.41 75.25 65.66 73.5 63.5 73.5C61.34 73.5 59.6 75.25 59.6 77.41C59.6 79.57 61.34 81.32 63.5 81.32Z"></path></g></g></g></g></g></g></svg>