<?xml version="1.0" encoding="utf-8"?>
<!-- Generator: Adobe Illustrator 22.0.0, SVG Export Plug-In . SVG Version: 6.00 Build 0)  -->
<svg version="1.1" id="Layer_1" xmlns="http://www.w3.org/2000/svg" xmlns:xlink="http://www.w3.org/1999/xlink" x="0px" y="0px"
	 viewBox="0 0 73.6 73.6" style="enable-background:new 0 0 73.6 73.6;" xml:space="preserve">
<style type="text/css">
	.st0{fill:#406FAA;}
	.st1{fill:#FFFFFF;}
	.st2{fill:none;stroke:#FFFFFF;stroke-width:1.2453;stroke-linecap:round;stroke-linejoin:round;stroke-miterlimit:10;}
	.st3{fill:none;stroke:#FFFFFF;stroke-width:1.483;stroke-linecap:round;stroke-linejoin:round;stroke-miterlimit:22.9256;}
	.st4{fill:none;stroke:#FFFFFF;stroke-width:1.5501;stroke-linecap:round;stroke-linejoin:round;stroke-miterlimit:10;}
	
		.st5{fill:none;stroke:#FFFFFF;stroke-width:1.5501;stroke-linecap:round;stroke-linejoin:round;stroke-miterlimit:10;stroke-dasharray:0.3653,3.3975;}
	.st6{fill:none;stroke:#FFFFFF;stroke-width:1.4893;stroke-linecap:round;stroke-linejoin:round;stroke-miterlimit:10;}
	
		.st7{fill:none;stroke:#FFFFFF;stroke-width:1.4893;stroke-linecap:round;stroke-linejoin:round;stroke-miterlimit:10;stroke-dasharray:0.2285,2.4822;}
	.st8{fill:none;stroke:#FFFFFF;stroke-width:1.443;stroke-linecap:round;stroke-linejoin:round;stroke-miterlimit:10;}
	
		.st9{fill:none;stroke:#FFFFFF;stroke-width:1.443;stroke-linecap:round;stroke-linejoin:round;stroke-miterlimit:10;stroke-dasharray:0.281,2.8861;}
	.st10{fill:none;stroke:#FFFFFF;stroke-width:1.4888;stroke-linecap:round;stroke-linejoin:round;stroke-miterlimit:10;}
	.st11{fill:none;}
</style>
<circle class="st0" cx="36.8" cy="36.8" r="34.2"/>
<g>
	<path class="st6" d="M50.1,27.2c2.2,2.8,3.6,6.3,3.6,10.2"/>
	<path class="st6" d="M21.3,37.4c0-8.9,7.2-16.2,16.2-16.2c1.8,0,3.5,0.3,5.1,0.8"/>
	<path class="st6" d="M28.1,28.5c-0.9,0.9-1.6,2-2.1,3.2"/>
	<path class="st6" d="M46.5,37.4h10.2v0.1c0,1.6-1.3,3-3,3H21.3c-1.6,0-3-1.3-3-3v-0.1h19.9"/>
	<circle class="st6" cx="38" cy="19.3" r="1.8"/>
	<path class="st6" d="M27,52c3.2-1.6,6.8-0.1,10.4-0.6c3.3-0.4,6.2-2.4,8.4-4.6c2.7-2.7,4.8-5.3,4.2-6c-1.4-1.8-5.7,3-6.2,3.4"/>
	<path class="st6" d="M31.8,46.5C34.4,46,37.6,47,40,46c0.7-0.3,2.3-1,1.8-2.2c-0.5-1.1-2.4-1.2-3.2-1.2c-1.5-0.1-3,0-4.5-0.4
		c-1.5-0.4-3-1.3-4.5-1.6c-4.1-0.9-5.5,2.8-7.8,4.9"/>
	<path class="st6" d="M27.2,54L25,55.9c-0.5,0.4-1.2,0.3-1.6-0.2l-6.2-7.6c-0.4-0.5-0.3-1.2,0.2-1.6l2.2-1.8
		c0.5-0.4,1.2-0.3,1.6,0.2l6.2,7.6C27.8,52.9,27.7,53.6,27.2,54z"/>
	<polyline class="st7" points="40.8,37.4 42.4,37.4 44.4,37.4 	"/>
	<path class="st7" d="M32.6,25.4c-1.1,0.4-2.2,1-3.1,1.8"/>
	<path class="st6" d="M45.1,19.8c2.4,2.6-2.3,3.3,0,5.6"/>
	<path class="st6" d="M48.3,19.8c2.4,2.6-2.3,3.3,0,5.6"/>
	<path class="st6" d="M51.7,19.8c2.4,2.6-2.3,3.3,0,5.6"/>
</g>
</svg>
