<svg xmlns="http://www.w3.org/2000/svg" xmlns:xlink="http://www.w3.org/1999/xlink" id="Layer_1" x="0px" y="0px" viewBox="0 0 73.6 73.6" style="enable-background:new 0 0 73.6 73.6;" xml:space="preserve"><style type="text/css">	.st0{fill:#604D8C;stroke:#604D8C;stroke-width:2;stroke-miterlimit:10;}	.st1{fill:#FFFFFF;}</style><circle class="st0" cx="36.8" cy="36.8" r="34.2"></circle><g>	<g>		<path class="st1" d="M53.7,38.1c-0.4,0-0.7-0.3-0.7-0.7c0-3.5-1.2-7-3.4-9.7c-0.3-0.3-0.2-0.8,0.1-1s0.8-0.2,1,0.1   c2.4,3,3.8,6.8,3.8,10.6C54.4,37.8,54.1,38.1,53.7,38.1z"></path>		<path class="st1" d="M21.3,38.1c-0.4,0-0.7-0.3-0.7-0.7c0-9.3,7.6-16.9,16.9-16.9c1.8,0,3.6,0.3,5.3,0.9c0.4,0.1,0.6,0.6,0.5,0.9   c-0.1,0.4-0.6,0.6-0.9,0.5c-1.6-0.5-3.2-0.8-4.9-0.8c-8.5,0-15.4,6.9-15.4,15.4C22.1,37.8,21.8,38.1,21.3,38.1z"></path>		<path class="st1" d="M26,32.4c-0.1,0-0.2,0-0.3-0.1c-0.4-0.2-0.5-0.6-0.4-1c0.5-1.2,1.3-2.4,2.2-3.4c0.3-0.3,0.7-0.3,1.1-0.1   c0.3,0.3,0.3,0.7,0.1,1.1c-0.8,0.9-1.5,1.9-1.9,3C26.6,32.3,26.3,32.4,26,32.4z"></path>		<path class="st1" d="M53.7,41.2H21.3c-2,0-3.7-1.7-3.7-3.7c0-0.4,0.3-0.8,0.7-0.8h19.9c0.4,0,0.7,0.3,0.7,0.7s-0.3,0.7-0.7,0.7   h-19c0.3,0.9,1.1,1.6,2.1,1.6h32.4c1,0,1.8-0.7,2.1-1.6h-9.4c-0.4,0-0.7-0.3-0.7-0.7s0.3-0.7,0.7-0.7h10.2c0.4,0,0.7,0.3,0.7,0.7   C57.4,39.5,55.7,41.2,53.7,41.2z"></path>		<path class="st1" d="M38,21.9c-1.4,0-2.6-1.2-2.6-2.6s1.2-2.6,2.6-2.6s2.6,1.2,2.6,2.6C40.6,20.8,39.4,21.9,38,21.9z M38,18.2   c-0.6,0-1.1,0.5-1.1,1.1s0.5,1.1,1.1,1.1s1.1-0.5,1.1-1.1S38.6,18.2,38,18.2z"></path>		<path class="st1" d="M27,52.8c-0.3,0-0.5-0.2-0.7-0.4c-0.2-0.4,0-0.8,0.3-1c2.1-1.1,4.4-0.9,6.6-0.7c1.3,0.1,2.7,0.2,4,0   c2.7-0.3,5.5-1.9,8-4.4c3.1-3.1,4-4.6,4.1-5.1h-0.1c-1.1-0.1-3.5,2.3-4.3,3.1c-0.3,0.3-0.5,0.5-0.6,0.6c-0.3,0.2-0.8,0.2-1-0.2   c-0.2-0.3-0.2-0.8,0.2-1c0.1-0.1,0.2-0.2,0.5-0.4c1.9-1.9,3.9-3.6,5.5-3.5c0.5,0,1,0.3,1.3,0.7c0.4,0.5,1.2,1.5-4.3,7   c-1.9,1.9-5,4.3-8.8,4.8c-1.5,0.2-2.9,0.1-4.3,0c-2.1-0.2-4-0.3-5.8,0.5C27.3,52.7,27.2,52.8,27,52.8z"></path>		<path class="st1" d="M31.8,47.2c-0.3,0-0.7-0.2-0.7-0.6c-0.1-0.4,0.2-0.8,0.6-0.9c1.2-0.3,2.5-0.2,3.8-0.1c1.5,0.1,3,0.2,4.2-0.3   c1.1-0.4,1.3-0.8,1.4-0.9c0,0,0-0.1,0-0.2c-0.3-0.6-1.7-0.7-2.3-0.8h-0.3c-0.5,0-0.9-0.1-1.4-0.1c-1,0-2.1-0.1-3.2-0.4   c-0.8-0.2-1.5-0.5-2.2-0.8c-0.8-0.3-1.5-0.6-2.3-0.8c-2.6-0.6-3.9,1-5.4,2.8c-0.5,0.7-1.1,1.3-1.7,1.9c-0.3,0.3-0.8,0.3-1.1,0   c-0.3-0.3-0.3-0.8,0-1.1c0.6-0.5,1.1-1.1,1.6-1.8c1.6-1.9,3.4-4.1,6.9-3.3c0.9,0.2,1.7,0.5,2.5,0.9c0.7,0.3,1.3,0.6,2,0.7   c0.9,0.2,1.9,0.3,2.9,0.3c0.5,0,1,0,1.5,0.1h0.2c1,0.1,3,0.2,3.6,1.7c0.2,0.5,0.2,0.9,0,1.4c-0.3,0.7-1,1.3-2.2,1.8   c-1.5,0.6-3.2,0.5-4.8,0.4c-1.2,0-2.4-0.1-3.4,0.1C31.9,47.2,31.9,47.2,31.8,47.2z"></path>		<path class="st1" d="M24.3,56.9c-0.1,0-0.1,0-0.2,0c-0.5,0-0.9-0.3-1.3-0.7l-6.2-7.6c-0.7-0.8-0.5-2,0.3-2.6l2.2-1.8   c0.4-0.3,0.9-0.5,1.4-0.4c0.5,0,0.9,0.3,1.3,0.7L28,52c0.7,0.8,0.5,2-0.3,2.6l0,0l-2.2,1.8C25.2,56.7,24.7,56.9,24.3,56.9z    M20.3,45.2c-0.1,0-0.2,0-0.2,0.1l-2.2,1.8c-0.2,0.1-0.2,0.4-0.1,0.5l6.2,7.6c0.1,0.1,0.2,0.1,0.3,0.1c0.1,0,0.2,0,0.3-0.1   l2.2-1.8c0.2-0.1,0.2-0.4,0.1-0.5l-6.2-7.6C20.5,45.2,20.4,45.2,20.3,45.2L20.3,45.2z M27.2,54L27.2,54L27.2,54z"></path>		<path class="st1" d="M43.8,38.1h-0.2c-0.4,0-0.7-0.3-0.7-0.7s0.3-0.7,0.7-0.7h0.2c0.4,0,0.7,0.3,0.7,0.7S44.2,38.1,43.8,38.1z    M41,38.1h-0.2c-0.4,0-0.7-0.3-0.7-0.7s0.3-0.7,0.7-0.7H41c0.4,0,0.7,0.3,0.7,0.7S41.5,38.1,41,38.1z"></path>		<path class="st1" d="M30,27.5c-0.2,0-0.5-0.1-0.6-0.3c-0.2-0.3-0.2-0.8,0.2-1l0.2-0.1c0.3-0.2,0.8-0.1,1,0.2   c0.2,0.3,0.1,0.8-0.2,1l-0.2,0.1C30.3,27.5,30.1,27.5,30,27.5z M32.4,26.2c-0.3,0-0.6-0.2-0.7-0.5c-0.2-0.4,0-0.8,0.4-1l0.2-0.1   c0.4-0.1,0.8,0,1,0.4s0,0.8-0.4,1l-0.2,0.1C32.6,26.2,32.5,26.2,32.4,26.2z"></path>		<path class="st1" d="M45.1,26.2c-0.2,0-0.4-0.1-0.5-0.2c-1.6-1.6-0.6-2.9,0-3.7c0.6-0.8,0.8-1.1,0-2c-0.3-0.3-0.3-0.8,0-1.1   c0.3-0.3,0.8-0.3,1.1,0c1.6,1.8,0.7,3.1,0.1,3.9c-0.6,0.8-0.8,1-0.1,1.7c0.3,0.3,0.3,0.8,0,1.1C45.4,26.1,45.3,26.2,45.1,26.2z"></path>		<path class="st1" d="M48.3,26.2c-0.2,0-0.4-0.1-0.5-0.2c-1.6-1.6-0.6-2.9,0-3.7c0.6-0.8,0.8-1.1,0-2c-0.3-0.3-0.3-0.8,0-1.1   c0.3-0.3,0.8-0.3,1.1,0c1.6,1.8,0.7,3.1,0.1,3.9c-0.6,0.8-0.8,1-0.1,1.7c0.3,0.3,0.3,0.8,0,1.1C48.7,26.1,48.5,26.2,48.3,26.2z"></path>		<path class="st1" d="M51.7,26.2c-0.2,0-0.4-0.1-0.5-0.2c-1.6-1.6-0.6-2.9,0-3.7c0.6-0.8,0.8-1.1,0-2c-0.3-0.3-0.3-0.8,0-1.1   c0.3-0.3,0.8-0.3,1.1,0c1.6,1.8,0.7,3.1,0.1,3.9c-0.6,0.8-0.8,1-0.1,1.7c0.3,0.3,0.3,0.8,0,1.1C52,26.1,51.8,26.2,51.7,26.2z"></path>	</g></g></svg>