<svg xmlns="http://www.w3.org/2000/svg" xmlns:xlink="http://www.w3.org/1999/xlink" id="Layer_1" x="0px" y="0px" viewBox="0 0 73.6 73.6" style="enable-background:new 0 0 73.6 73.6;" xml:space="preserve"><style type="text/css">	.st0{fill:none;stroke:#406FAA;stroke-width:2;stroke-miterlimit:10;}	.st1{fill:#406FAA;}</style><circle class="st0" cx="36.8" cy="36.8" r="34.2"></circle><g>	<g>		<g>			<path class="st1" d="M20.4,51.4c-1.2,0-2.2-1-2.2-2.2l0.4-12.6c-1.4-0.6-2.4-1.9-2.4-3.4v-6.5c0-0.4,0.3-0.7,0.7-0.7    s0.7,0.3,0.7,0.7v6.5c0,1,0.8,1.9,1.9,2.2c0.3,0.1,0.5,0.4,0.5,0.7l-0.4,13.1c0,0.4,0.3,0.7,0.7,0.7s0.7-0.3,0.7-0.7l-0.4-13.1    c0-0.3,0.2-0.6,0.5-0.7c1.1-0.3,1.9-1.2,1.9-2.2v-6.5c0-0.4,0.3-0.7,0.7-0.7s0.7,0.3,0.7,0.7v6.5c0,1.5-0.9,2.8-2.4,3.4l0.4,12.6    C22.6,50.4,21.6,51.4,20.4,51.4z"></path>			<path class="st1" d="M19.2,33.1c-0.4,0-0.7-0.3-0.7-0.7v-5.7c0-0.4,0.3-0.7,0.7-0.7s0.7,0.3,0.7,0.7v5.7    C20,32.8,19.6,33.1,19.2,33.1z"></path>			<path class="st1" d="M21.5,33.1c-0.4,0-0.7-0.3-0.7-0.7v-5.7c0-0.4,0.3-0.7,0.7-0.7s0.7,0.3,0.7,0.7v5.7    C22.3,32.8,21.9,33.1,21.5,33.1z"></path>			<path class="st1" d="M54,51.4c-1.2,0-2.1-1-2.1-2.1l0.6-8.3h-0.8c-0.3,0-0.7-0.1-0.9-0.4c-0.2-0.2-0.4-0.6-0.4-0.9    c0.1-3.7,1.4-9,2.5-11.8c0.2-0.4,0.5-1.2,1-1.6c0.4-0.3,0.9-0.4,1.4-0.2c0.3,0.1,0.8,0.5,0.8,1.6v21.5    C56.1,50.4,55.2,51.4,54,51.4z M51.9,39.5h1.3c0.2,0,0.4,0.1,0.5,0.2c0.1,0.1,0.2,0.3,0.2,0.5l-0.7,9c0,0.3,0.3,0.7,0.7,0.7    c0.4,0,0.7-0.3,0.7-0.7V27.7c0,0,0,0,0,0c-0.1,0.2-0.3,0.4-0.4,0.8C53.2,31,52,36.1,51.9,39.5z"></path>			<path class="st1" d="M36.9,51.4c-7,0-12.7-5.7-12.7-12.7S29.9,26,36.9,26s12.7,5.7,12.7,12.7S43.9,51.4,36.9,51.4z M36.9,27.4    c-6.2,0-11.3,5-11.3,11.3c0,6.2,5,11.3,11.3,11.3c6.2,0,11.3-5,11.3-11.3C48.1,32.5,43.1,27.4,36.9,27.4z"></path>			<path class="st1" d="M36.9,47.5c-4.9,0-8.8-4-8.8-8.8s4-8.8,8.8-8.8s8.8,4,8.8,8.8S41.7,47.5,36.9,47.5z M36.9,31.3    c-4.1,0-7.4,3.3-7.4,7.4s3.3,7.4,7.4,7.4s7.4-3.3,7.4-7.4S40.9,31.3,36.9,31.3z"></path>			<path class="st1" d="M31.7,26.2c-0.4,0-0.7-0.3-0.7-0.7v-1.8c0-0.4,0.3-0.7,0.7-0.7c0.4,0,0.7,0.3,0.7,0.7v1.8    C32.4,25.9,32.1,26.2,31.7,26.2z"></path>			<path class="st1" d="M42.5,26.2c-0.4,0-0.7-0.3-0.7-0.7v-8.1c0-0.4,0.3-0.7,0.7-0.7s0.7,0.3,0.7,0.7v8.1    C43.2,25.9,42.9,26.2,42.5,26.2z"></path>			<path class="st1" d="M39.1,25.2c-0.4,0-0.7-0.3-0.7-0.7v-3c0-0.4,0.3-0.7,0.7-0.7s0.7,0.3,0.7,0.7v3    C39.8,24.9,39.5,25.2,39.1,25.2z"></path>			<path class="st1" d="M35.5,25.2c-0.4,0-0.7-0.3-0.7-0.7v-4.7c0-0.4,0.3-0.7,0.7-0.7s0.7,0.3,0.7,0.7v4.7    C36.2,24.9,35.9,25.2,35.5,25.2z"></path>			<path class="st1" d="M39.1,19.1c-0.4,0-0.7-0.3-0.7-0.7v-0.3c0-0.4,0.3-0.7,0.7-0.7s0.7,0.3,0.7,0.7v0.3    C39.8,18.8,39.5,19.1,39.1,19.1z M39.1,16c-0.4,0-0.7-0.3-0.7-0.7V15c0-0.4,0.3-0.7,0.7-0.7s0.7,0.3,0.7,0.7v0.3    C39.8,15.7,39.5,16,39.1,16z"></path>			<path class="st1" d="M31.7,21.6c-0.4,0-0.7-0.3-0.7-0.7v-0.3c0-0.4,0.3-0.7,0.7-0.7c0.4,0,0.7,0.3,0.7,0.7v0.3    C32.4,21.3,32.1,21.6,31.7,21.6z M31.7,18.4c-0.4,0-0.7-0.3-0.7-0.7v-0.3c0-0.4,0.3-0.7,0.7-0.7c0.4,0,0.7,0.3,0.7,0.7v0.3    C32.4,18.1,32.1,18.4,31.7,18.4z"></path>			<path class="st1" d="M45.8,28.1c-0.4,0-0.7-0.3-0.7-0.7v-1.8c0-0.4,0.3-0.7,0.7-0.7s0.7,0.3,0.7,0.7v1.8    C46.6,27.8,46.2,28.1,45.8,28.1z"></path>			<path class="st1" d="M45.8,23.5c-0.4,0-0.7-0.3-0.7-0.7v-0.3c0-0.4,0.3-0.7,0.7-0.7s0.7,0.3,0.7,0.7v0.3    C46.6,23.2,46.2,23.5,45.8,23.5z"></path>			<path class="st1" d="M27.9,28.2c-0.4,0-0.7-0.3-0.7-0.7v-1.3c0-0.4,0.3-0.7,0.7-0.7s0.7,0.3,0.7,0.7v1.3    C28.6,27.8,28.3,28.2,27.9,28.2z"></path>			<path class="st1" d="M27.9,24.1c-0.4,0-0.7-0.3-0.7-0.7v-0.3c0-0.4,0.3-0.7,0.7-0.7s0.7,0.3,0.7,0.7v0.3    C28.6,23.7,28.3,24.1,27.9,24.1z"></path>		</g>		<path class="st1" d="M36.6,42.3c-0.2,0-0.3-0.1-0.5-0.2l-3.2-2.7c-0.3-0.3-0.4-0.7-0.1-1c0.3-0.3,0.7-0.4,1-0.1l2.6,2.2l3.5-4.6   c0.2-0.3,0.7-0.4,1-0.1c0.3,0.2,0.4,0.7,0.1,1l-4,5.2C37.1,42.2,36.9,42.3,36.6,42.3C36.7,42.3,36.6,42.3,36.6,42.3z"></path>	</g></g></svg>