<svg xmlns="http://www.w3.org/2000/svg" viewBox="0 0 128 127" width="128" height="127"><defs><clipPath clipPathUnits="userSpaceOnUse" id="cp1"><path d="M-387 -2571L1053 -2571L1053 2814L-387 2814Z"></path></clipPath></defs><style>
		tspan { white-space:pre }
		.shp0 { fill: none;stroke: #604d8d;stroke-width: 2 } 
		.shp1 { fill: #604d8d } 
	</style><g id="Hire Help - 4 - Static" clip-path="url(#cp1)"><g id="Hyer Standard"><g id="Group 18"><g id="Business/Static/No Fees"><g id="Group 37"><path id="Oval Copy" class="shp0" d="M64 126C98.52 126 126.5 98.02 126.5 63.5C126.5 28.98 98.52 1 64 1C29.48 1 1.5 28.98 1.5 63.5C1.5 98.02 29.48 126 64 126Z"></path><g id="Icons/No Fees"><g id="Unknown-15"><path id="Shape" fill-rule="evenodd" class="shp1" d="M74.99 68.28L42.6 68.28C41.52 68.28 40.67 67.44 40.67 66.35C40.67 65.27 41.52 64.42 42.6 64.42L74.99 64.42C76.07 64.42 76.92 65.27 76.92 66.35C76.92 67.44 76 68.28 74.99 68.28ZM77 58.71C77 59.79 76.15 60.64 75.07 60.64L57.02 60.64C55.94 60.64 55.1 59.79 55.1 58.71C55.1 57.63 55.94 56.78 57.02 56.78L75.15 56.78C76.23 56.78 77.07 57.63 77 58.71ZM81.16 88.82L81.16 84.26C82.47 82.64 83.78 81.02 85.02 79.32L85.02 88.82C85.02 93.37 81.32 97 76.84 97L40.67 97C36.12 97 32.5 93.29 32.5 88.82L32.5 39.11C32.5 34.63 36.2 30.92 40.67 31C40.75 31 68.13 31 68.13 31C68.21 31 68.28 31 68.36 31C68.44 31 68.44 31 68.44 31C68.51 31 68.59 31.08 68.67 31.08C68.75 31.08 68.75 31.08 68.75 31.08C68.82 31.08 68.9 31.16 68.98 31.16C69.05 31.16 69.05 31.16 69.05 31.16C69.13 31.23 69.21 31.23 69.29 31.31C69.36 31.39 69.36 31.39 69.44 31.46L84.71 45.9C84.79 45.9 84.79 45.98 84.86 46.05C84.86 46.13 84.86 46.13 84.86 46.13C84.94 46.21 84.94 46.28 85.02 46.36C85.02 46.44 85.1 46.52 85.1 46.59C85.1 46.67 85.1 46.67 85.1 46.67C85.1 46.75 85.17 46.83 85.17 46.9C85.17 46.98 85.17 53.23 85.17 53.31C85.02 53.46 84.94 53.62 84.86 53.77C84.48 54.31 82.86 57.09 81.78 58.79C81.63 58.94 81.47 59.18 81.39 59.33C81.32 59.48 81.32 59.56 81.24 59.64L81.24 49.22L74.38 49.22C69.83 49.22 66.2 45.51 66.2 41.04L66.2 34.78L40.67 34.78C38.28 34.78 36.36 36.71 36.36 39.11L36.36 88.82C36.36 91.21 38.28 93.14 40.67 93.14L76.84 93.14C79.23 93.14 81.16 91.21 81.16 88.82ZM46.69 42.66C46.69 42.43 46.69 42.12 46.69 41.89C46.69 41.34 46.84 41.19 47.38 41.19C47.54 41.19 47.77 41.19 47.92 41.19C49.16 41.11 49.16 41.11 49.16 42.35C49.16 43.2 49.16 43.2 50.01 43.35C50.62 43.43 51.24 43.66 51.86 43.89C52.24 43.97 52.32 44.2 52.24 44.59C52.09 45.05 51.93 45.59 51.78 46.13C51.63 46.59 51.47 46.67 51.01 46.44C50.01 45.98 49.08 45.82 48 45.9C47.77 45.9 47.46 45.98 47.23 46.05C46.38 46.44 46.23 47.44 47 48.06C47.38 48.37 47.85 48.6 48.31 48.76C49.16 49.06 49.93 49.37 50.7 49.76C53.17 51.07 53.86 54.08 52.17 56.17C51.55 56.94 50.78 57.48 49.85 57.71C49.47 57.86 49.31 58.1 49.31 58.48C49.31 58.87 49.31 59.33 49.31 59.72C49.31 60.1 49.16 60.33 48.77 60.33C48.39 60.33 47.92 60.33 47.46 60.33C47.08 60.33 46.84 60.1 46.84 59.72C46.84 59.41 46.84 59.1 46.84 58.79C46.84 58.17 46.77 58.1 46.15 58.02C45.3 57.94 44.53 57.79 43.76 57.4C43.22 57.09 43.14 56.94 43.3 56.32C43.45 55.86 43.53 55.39 43.68 54.93C43.84 54.39 43.99 54.31 44.45 54.54C45.22 55.01 46.15 55.24 47.08 55.32C47.62 55.39 48.23 55.32 48.77 55.08C49.85 54.62 49.93 53.39 49.08 52.69C48.77 52.46 48.46 52.31 48.08 52.15C47.23 51.77 46.23 51.46 45.38 50.99C43.99 50.22 43.06 49.06 43.14 47.37C43.3 45.44 44.3 44.28 46.07 43.58C46.77 43.35 46.77 43.35 46.69 42.66ZM72.45 76L42.53 76C41.45 76 40.6 75.15 40.6 74.07C40.6 72.99 41.45 72.14 42.53 72.14L74.3 72.14C73.99 72.84 73.6 73.53 73.3 74.23C72.99 74.85 72.76 75.46 72.45 76ZM42.53 79.86L70.83 79.86C70.29 81.18 69.83 82.41 69.44 83.72L42.6 83.72C41.52 83.72 40.67 82.87 40.67 81.79C40.67 80.71 41.52 79.86 42.53 79.86ZM102.29 54.85L92.96 70.99C92.88 71.14 92.73 71.14 92.65 71.14C91.34 70.83 90.8 69.44 91.42 68.36L99.44 54.31L97.82 53.39C97.59 53.85 97.28 54.24 97.05 54.7C95.66 57.01 94.27 59.25 92.96 61.57C92.88 61.72 92.81 61.8 92.73 61.88L91.03 64.66C90.96 64.81 90.96 64.89 90.88 64.97C90.57 65.43 90.19 65.97 89.88 66.51L89.8 66.66C85.87 72.92 81.7 78.94 76.84 84.49C75.84 85.65 74.84 86.73 73.6 87.66C73.14 87.97 72.6 88.43 72.06 88.12C71.52 87.81 71.68 87.12 71.75 86.58C71.83 86.12 71.99 85.65 72.06 85.19C73.07 81.87 74.45 78.71 76 75.54C78.31 70.83 80.85 66.2 83.48 61.65L83.78 61.41C83.86 61.26 83.94 61.11 84.02 60.95C84.09 60.8 84.17 60.64 84.25 60.57L85.94 57.71C85.94 57.63 86.02 57.63 86.02 57.55C88.1 54.24 90.03 50.92 92.34 47.75C92.96 46.9 93.66 46.05 94.5 45.36C95.74 44.36 96.74 44.28 98.13 45.05C99.67 46.05 100.21 47.13 99.9 48.68C99.9 48.91 99.83 49.14 99.75 49.37C99.52 50.07 99.29 50.68 98.98 51.38L100.75 52.38L101.83 53C102.52 53.39 102.68 54.24 102.29 54.85Z"></path></g></g></g></g></g></g></g></svg>