<svg xmlns="http://www.w3.org/2000/svg" viewBox="0 0 126 125" width="126" height="125"><defs><clipPath clipPathUnits="userSpaceOnUse" id="cp1"><path d="M-928 -2572L512 -2572L512 2813L-928 2813Z"></path></clipPath></defs><style>
		tspan { white-space:pre }
		.shp0 { fill: #604d8d;stroke: #604d8d;stroke-width: 2 } 
		.shp1 { fill: #ffffff } 
	</style><g id="Hire Help - 4 - Active" clip-path="url(#cp1)"><g id="Hyer Standard"><g id="Group 18"><g id="Business/Active/Payment Processing"><g id="Group 35"><path id="Oval Copy 7" class="shp0" d="M63 125C97.52 125 125.5 97.02 125.5 62.5C125.5 27.98 97.52 0 63 0C28.48 0 0.5 27.98 0.5 62.5C0.5 97.02 28.48 125 63 125Z"></path><g id="Icons/Payment Processing"><g id="Unknown-18"><path id="Shape" fill-rule="evenodd" class="shp1" d="M82.25 60.14C82.25 70.76 73.62 79.41 63 79.41C52.38 79.41 43.75 70.76 43.75 60.14C43.75 49.51 52.38 40.87 63 40.87C73.62 40.87 82.25 49.51 82.25 60.14ZM79.5 60.14C79.5 51.03 72.1 43.62 63 43.62C53.9 43.62 46.5 51.03 46.5 60.14C46.5 69.24 53.9 76.65 63 76.65C72.1 76.65 79.5 69.24 79.5 60.14ZM99.5 41.58L99.5 78.69C99.5 82.32 96.55 85.27 92.92 85.27L79.47 85.27L79.47 82.52L92.92 82.52C95.03 82.52 96.75 80.8 96.75 78.69L96.75 41.58C96.75 39.47 95.03 37.75 92.92 37.75L33.08 37.75C30.97 37.75 29.25 39.47 29.25 41.58L29.25 78.69C29.25 80.8 30.97 82.52 33.09 82.52L46.54 82.52L46.54 85.27L33.09 85.27C29.46 85.27 26.5 82.32 26.5 78.69L26.5 41.58C26.5 37.95 29.46 35 33.08 35L92.92 35C96.55 35 99.5 37.95 99.5 41.58ZM61.47 53.36C61.02 53.82 60.8 54.45 60.8 55.25C60.8 55.99 61.02 56.59 61.45 57.04C61.88 57.49 62.68 57.95 63.85 58.43C65.02 58.89 65.98 59.34 66.73 59.75C67.49 60.17 68.13 60.64 68.65 61.16C69.16 61.68 69.56 62.29 69.83 62.95C70.11 63.63 70.25 64.41 70.24 65.3C70.24 66.97 69.72 68.32 68.69 69.36C67.65 70.4 66.22 71.01 64.4 71.2L64.4 74.12L62.07 74.12L62.07 71.21C60.06 71 58.51 70.28 57.4 69.07C56.3 67.86 55.75 66.25 55.75 64.24L59.99 64.24C59.99 65.41 60.27 66.31 60.82 66.93C61.38 67.55 62.17 67.86 63.21 67.86C64.07 67.86 64.75 67.64 65.25 67.18C65.75 66.72 66 66.11 66 65.34C66 64.53 65.77 63.89 65.33 63.42C64.88 62.94 64.13 62.5 63.06 62.1C61.99 61.69 61.07 61.3 60.3 60.9C59.51 60.51 58.86 60.05 58.31 59.53C57.76 59.02 57.33 58.41 57.02 57.72C56.71 57.02 56.56 56.19 56.56 55.23C56.56 53.58 57.09 52.22 58.14 51.16C59.2 50.1 60.61 49.48 62.36 49.31L62.36 46.16L64.71 46.16L64.71 49.35C66.44 49.6 67.8 50.31 68.77 51.52C69.76 52.72 70.25 54.28 70.25 56.19L66 56.19C66 55.01 65.76 54.13 65.28 53.55C64.79 52.96 64.14 52.67 63.33 52.67C62.53 52.67 61.91 52.9 61.47 53.36ZM33.8 78.55L33.8 75.8L41.28 75.8L41.28 78.55L33.8 78.55ZM41.28 44.47L33.8 44.47L33.8 41.72L41.28 41.72L41.28 44.47ZM84.72 75.8L92.2 75.8L92.2 78.55L84.72 78.55L84.72 75.8ZM92.2 41.72L92.2 44.47L84.72 44.47L84.72 41.72L92.2 41.72ZM53.07 82.52L55.82 82.52L55.82 93.94L53.07 93.94L53.07 82.52ZM70.18 82.52L72.93 82.52L72.93 93.94L70.18 93.94L70.18 82.52ZM61.62 82.52L64.38 82.52L64.38 100L61.62 100L61.62 82.52Z"></path></g></g></g></g></g></g></g></svg>