<svg xmlns="http://www.w3.org/2000/svg" viewBox="0 0 107 108" width="107" height="108"><defs><clipPath clipPathUnits="userSpaceOnUse" id="cp1"><path d="M-573 -901L867 -901L867 4484L-573 4484Z"></path></clipPath></defs><style>
		tspan { white-space:pre }
		.shp0 { fill: none;stroke: #604d8d;stroke-width: 2 } 
		.shp1 { fill: #604d8d } 
	</style><g id="Hire Help - 4 - Static" clip-path="url(#cp1)"><g id="Ready to Try?"><g id="Get the App"><g id="Business/Static/Get the App"><g id="Group 27"><path id="Oval" class="shp0" d="M53.5 106C82.49 106 106 82.49 106 53.5C106 24.5 82.49 1 53.5 1C24.5 1 1 24.5 1 53.5C1 82.49 24.5 106 53.5 106Z"></path><g id="Apply-Go"><g id="Unknown-1"><path id="Shape" fill-rule="evenodd" class="shp1" d="M65.06 24C68.69 24 71.62 26.94 71.62 30.56L71.62 77.44C71.62 81.06 68.69 84 65.06 84L42.56 84C38.94 84 36 81.06 36 77.44L36 30.56C36 26.94 38.94 24 42.56 24L65.06 24ZM63.14 27.28C62.76 27.27 62.39 27.41 62.12 27.68C61.84 27.94 61.69 28.31 61.69 28.69C61.69 29.46 62.32 30.09 63.09 30.09C63.87 30.09 64.5 29.46 64.5 28.69C64.5 27.91 63.87 27.28 63.09 27.28L63.14 27.28ZM47.72 28.69C47.72 29.21 48.14 29.62 48.66 29.62L58.97 29.62C59.49 29.62 59.91 29.21 59.91 28.69C59.91 28.17 59.49 27.75 58.97 27.75L48.66 27.75C48.14 27.75 47.72 28.17 47.72 28.69ZM55.73 81.11C56.24 80.6 56.53 79.91 56.53 79.19C56.53 77.69 55.31 76.47 53.81 76.47C52.31 76.47 51.09 77.69 51.09 79.19C51.09 80.69 52.31 81.91 53.81 81.91C54.53 81.91 55.22 81.62 55.73 81.11ZM68.81 33.37L38.81 33.37L38.81 74.62L68.81 74.62L68.81 33.37Z"></path></g></g></g></g></g></g></g></svg>