<svg xmlns="http://www.w3.org/2000/svg" xmlns:xlink="http://www.w3.org/1999/xlink" id="Capa_1" x="0px" y="0px" viewBox="0 0 107 107" style="enable-background:new 0 0 107 107;" xml:space="preserve">
<style type="text/css">
	.st0{clip-path:url(#SVGID_2_);}
	.st1{fill:none;stroke:#4D79AC;stroke-width:2;}
	.st2{fill-rule:evenodd;clip-rule:evenodd;fill:#4D79AC;stroke:#979797;}
	.st3{fill-rule:evenodd;clip-rule:evenodd;fill:#4D79AC;}
	.st4{fill:#4D79AC;}
</style>
<g>
	<defs>
		<rect id="SVGID_1_" x="-882" y="-973" width="1440" height="4875"></rect>
	</defs>
	<clipPath id="SVGID_2_">
		<use xlink:href="#SVGID_1_" style="overflow:visible;"></use>
	</clipPath>
	<g id="Find_Work_-_4_-_Static" class="st0">
		<g id="Easy_to_Use">
			<g id="Create_Profile">
				<g id="Tasker-Create_Profile-Static">
					<g id="Group_15">
						<path id="Oval_Copy_10" class="st1" d="M53.5,106c29,0,52.5-23.5,52.5-52.5S82.5,1,53.5,1C24.5,1,1,24.5,1,53.5        S24.5,106,53.5,106z"></path>
						<g id="Unknown-40">
							<path id="Shape" class="st2" d="M83,73.7C83,79.4,78.4,84,72.7,84c-4,0-7.4-2.3-9.1-5.6H26v-1.2c0-12.1,8-22.3,18.9-25.3         c-4.9-2.4-8.3-7.4-8.3-13.2c0-8.1,6.6-14.7,14.7-14.7s14.7,6.6,14.7,14.7c0,5.8-3.4,10.9-8.3,13.3         c6.2,1.7,11.6,5.7,15.1,11.5c0,0,0.1,0,0.1,0C78.4,63.4,83,68,83,73.7z M51.2,51.1c6.8,0,12.4-5.6,12.4-12.4         S58,26.3,51.2,26.3s-12.4,5.6-12.4,12.4S44.4,51.1,51.2,51.1z M28.3,76.1h34.4c-0.2-0.8-0.3-1.5-0.3-2.4         c0-4.8,3.3-8.8,7.7-9.9c-4.3-6.4-11.3-10.3-18.9-10.3C39,53.4,28.9,63.5,28.3,76.1L28.3,76.1z M80.7,73.7c0-4.4-3.6-8-8-8         c-4.4,0-8,3.6-8,8c0,4.4,3.6,8,8,8C77.1,81.7,80.7,78.1,80.7,73.7z"></path>
							<path id="Shape_copy" class="st2" d="M83,73.7C83,79.4,78.4,84,72.7,84c-4,0-7.4-2.3-9.1-5.6H26v-1.2         c0-12.1,8-22.3,18.9-25.3c-4.9-2.4-8.3-7.4-8.3-13.2c0-8.1,6.6-14.7,14.7-14.7s14.7,6.6,14.7,14.7c0,5.8-3.4,10.9-8.3,13.3         c6.2,1.7,11.6,5.7,15.1,11.5c0,0,0.1,0,0.1,0C78.4,63.4,83,68,83,73.7z M51.2,51.1c6.8,0,12.4-5.6,12.4-12.4         S58,26.3,51.2,26.3s-12.4,5.6-12.4,12.4S44.4,51.1,51.2,51.1z M28.3,76.1h34.4c-0.2-0.8-0.3-1.5-0.3-2.4         c0-4.8,3.3-8.8,7.7-9.9c-4.3-6.4-11.3-10.3-18.9-10.3C39,53.4,28.9,63.5,28.3,76.1L28.3,76.1z M80.7,73.7c0-4.4-3.6-8-8-8         c-4.4,0-8,3.6-8,8c0,4.4,3.6,8,8,8C77.1,81.7,80.7,78.1,80.7,73.7z"></path>
							<path id="Shape_copy_3" class="st2" d="M83,73.7C83,79.4,78.4,84,72.7,84c-4,0-7.4-2.3-9.1-5.6H26v-1.2         c0-12.1,8-22.3,18.9-25.3c-4.9-2.4-8.3-7.4-8.3-13.2c0-8.1,6.6-14.7,14.7-14.7s14.7,6.6,14.7,14.7c0,5.8-3.4,10.9-8.3,13.3         c6.2,1.7,11.6,5.7,15.1,11.5c0,0,0.1,0,0.1,0C78.4,63.4,83,68,83,73.7z M51.2,51.1c6.8,0,12.4-5.6,12.4-12.4         S58,26.3,51.2,26.3s-12.4,5.6-12.4,12.4S44.4,51.1,51.2,51.1z M28.3,76.1h34.4c-0.2-0.8-0.3-1.5-0.3-2.4         c0-4.8,3.3-8.8,7.7-9.9c-4.3-6.4-11.3-10.3-18.9-10.3C39,53.4,28.9,63.5,28.3,76.1L28.3,76.1z M80.7,73.7c0-4.4-3.6-8-8-8         c-4.4,0-8,3.6-8,8c0,4.4,3.6,8,8,8C77.1,81.7,80.7,78.1,80.7,73.7z"></path>
							<path id="Shape_copy_4" class="st2" d="M83,73.7C83,79.4,78.4,84,72.7,84c-4,0-7.4-2.3-9.1-5.6H26v-1.2         c0-12.1,8-22.3,18.9-25.3c-4.9-2.4-8.3-7.4-8.3-13.2c0-8.1,6.6-14.7,14.7-14.7s14.7,6.6,14.7,14.7c0,5.8-3.4,10.9-8.3,13.3         c6.2,1.7,11.6,5.7,15.1,11.5c0,0,0.1,0,0.1,0C78.4,63.4,83,68,83,73.7z M51.2,51.1c6.8,0,12.4-5.6,12.4-12.4         S58,26.3,51.2,26.3s-12.4,5.6-12.4,12.4S44.4,51.1,51.2,51.1z M28.3,76.1h34.4c-0.2-0.8-0.3-1.5-0.3-2.4         c0-4.8,3.3-8.8,7.7-9.9c-4.3-6.4-11.3-10.3-18.9-10.3C39,53.4,28.9,63.5,28.3,76.1L28.3,76.1z M80.7,73.7c0-4.4-3.6-8-8-8         c-4.4,0-8,3.6-8,8c0,4.4,3.6,8,8,8C77.1,81.7,80.7,78.1,80.7,73.7z"></path>
							<path id="Shape_copy_5" class="st2" d="M83,73.7C83,79.4,78.4,84,72.7,84c-4,0-7.4-2.3-9.1-5.6H26v-1.2         c0-12.1,8-22.3,18.9-25.3c-4.9-2.4-8.3-7.4-8.3-13.2c0-8.1,6.6-14.7,14.7-14.7s14.7,6.6,14.7,14.7c0,5.8-3.4,10.9-8.3,13.3         c6.2,1.7,11.6,5.7,15.1,11.5c0,0,0.1,0,0.1,0C78.4,63.4,83,68,83,73.7z M51.2,51.1c6.8,0,12.4-5.6,12.4-12.4         S58,26.3,51.2,26.3s-12.4,5.6-12.4,12.4S44.4,51.1,51.2,51.1z M28.3,76.1h34.4c-0.2-0.8-0.3-1.5-0.3-2.4         c0-4.8,3.3-8.8,7.7-9.9c-4.3-6.4-11.3-10.3-18.9-10.3C39,53.4,28.9,63.5,28.3,76.1L28.3,76.1z M80.7,73.7c0-4.4-3.6-8-8-8         c-4.4,0-8,3.6-8,8c0,4.4,3.6,8,8,8C77.1,81.7,80.7,78.1,80.7,73.7z"></path>
							<path id="Shape_copy_6" class="st2" d="M83,73.7C83,79.4,78.4,84,72.7,84c-4,0-7.4-2.3-9.1-5.6H26v-1.2         c0-12.1,8-22.3,18.9-25.3c-4.9-2.4-8.3-7.4-8.3-13.2c0-8.1,6.6-14.7,14.7-14.7s14.7,6.6,14.7,14.7c0,5.8-3.4,10.9-8.3,13.3         c6.2,1.7,11.6,5.7,15.1,11.5c0,0,0.1,0,0.1,0C78.4,63.4,83,68,83,73.7z M51.2,51.1c6.8,0,12.4-5.6,12.4-12.4         S58,26.3,51.2,26.3s-12.4,5.6-12.4,12.4S44.4,51.1,51.2,51.1z M28.3,76.1h34.4c-0.2-0.8-0.3-1.5-0.3-2.4         c0-4.8,3.3-8.8,7.7-9.9c-4.3-6.4-11.3-10.3-18.9-10.3C39,53.4,28.9,63.5,28.3,76.1L28.3,76.1z M80.7,73.7c0-4.4-3.6-8-8-8         c-4.4,0-8,3.6-8,8c0,4.4,3.6,8,8,8C77.1,81.7,80.7,78.1,80.7,73.7z"></path>
							<path id="Shape_copy_2" class="st3" d="M83,73.7C83,79.4,78.4,84,72.7,84c-4,0-7.4-2.3-9.1-5.6H26v-1.2         c0-12.1,8-22.3,18.9-25.3c-4.9-2.4-8.3-7.4-8.3-13.2c0-8.1,6.6-14.7,14.7-14.7s14.7,6.6,14.7,14.7c0,5.8-3.4,10.9-8.3,13.3         c6.2,1.7,11.6,5.7,15.1,11.5c0,0,0.1,0,0.1,0C78.4,63.4,83,68,83,73.7z M51.2,51.1c6.8,0,12.4-5.6,12.4-12.4         S58,26.3,51.2,26.3s-12.4,5.6-12.4,12.4S44.4,51.1,51.2,51.1z M28.3,76.1h34.4c-0.2-0.8-0.3-1.5-0.3-2.4         c0-4.8,3.3-8.8,7.7-9.9c-4.3-6.4-11.3-10.3-18.9-10.3C39,53.4,28.9,63.5,28.3,76.1L28.3,76.1z M80.7,73.7c0-4.4-3.6-8-8-8         c-4.4,0-8,3.6-8,8c0,4.4,3.6,8,8,8C77.1,81.7,80.7,78.1,80.7,73.7z"></path>
							<path id="Path" class="st4" d="M76.9,72.9h-2.7v-2.7c0-0.6-0.5-1.1-1.1-1.1s-1.1,0.5-1.1,1.1v2.7h-2.7         c-0.6,0-1.1,0.5-1.1,1.1s0.5,1.1,1.1,1.1h2.7v2.7c0,0.6,0.5,1.1,1.1,1.1s1.1-0.5,1.1-1.1v-2.7h2.7c0.6,0,1.1-0.5,1.1-1.1         S77.5,72.9,76.9,72.9z"></path>
						</g>
					</g>
				</g>
			</g>
		</g>
	</g>
</g>
</svg>