<svg xmlns="http://www.w3.org/2000/svg" viewBox="0 0 128 127" width="128" height="127"><defs><clipPath clipPathUnits="userSpaceOnUse" id="cp1"><path d="M-658 -2571L782 -2571L782 2814L-658 2814Z"></path></clipPath></defs><style>
		tspan { white-space:pre }
		.shp0 { fill: #604d8d } 
		.shp1 { fill: none;stroke: #604d8d;stroke-width: 2 } 
	</style><g id="Hire Help - 4 - Static" clip-path="url(#cp1)"><g id="Hyer Standard"><g id="Group 18"><g id="Business/Static/Workforce"><g id="Group 34"><g id="Icons/Scale Workforce"><g id="Group 14"><path id="Shape" fill-rule="evenodd" class="shp0" d="M98.5 92.6C98.5 93.3 97.94 94 97.1 94L29.9 94C29.2 94 28.5 93.44 28.5 92.6C28.5 87.71 31.45 83.52 35.65 81.57C33.83 80.17 32.57 77.79 32.57 75.28C32.57 70.81 36.22 67.18 40.7 67.18C45.19 67.18 48.84 70.81 48.84 75.28C48.84 77.79 47.58 80.03 45.75 81.57C46.6 81.99 47.44 82.4 48.28 83.1C49.82 81.29 51.79 79.89 53.89 79.05C51.37 77.24 49.82 74.44 49.82 71.23C49.82 65.92 54.17 61.59 59.5 61.59C64.83 61.59 69.18 65.92 69.18 71.23C69.18 74.44 67.5 77.37 65.11 79.05C66.38 79.61 67.5 80.31 68.62 81.15C70.44 79.05 72.83 77.51 75.35 76.54C72.27 74.58 70.16 71.09 70.16 67.18C70.16 61.03 75.21 56 81.39 56C87.56 56 92.61 61.03 92.61 67.18C92.61 71.09 90.5 74.58 87.42 76.54C93.87 79.05 98.5 85.2 98.5 92.6ZM81.39 75.42C86.01 75.42 89.66 71.79 89.66 67.18C89.66 62.57 86.01 58.93 81.39 58.93C76.76 58.93 73.11 62.71 73.11 67.18C73.11 71.79 76.76 75.42 81.39 75.42ZM59.5 77.93C63.15 77.93 66.24 74.86 66.24 71.23C66.24 67.6 63.15 64.52 59.5 64.52C55.85 64.52 52.77 67.6 52.77 71.23C52.77 74.86 55.85 77.93 59.5 77.93ZM40.56 80.31C43.37 80.31 45.75 78.07 45.75 75.14C45.75 72.35 43.37 69.97 40.56 69.97C37.76 69.97 35.37 72.21 35.37 75.14C35.37 78.07 37.76 80.31 40.56 80.31ZM31.45 91.07L44.77 91.07C45.05 89.11 45.61 87.15 46.6 85.48C44.91 83.94 42.81 83.24 40.56 83.24C35.93 83.24 32.15 86.6 31.45 91.07ZM47.72 91.21L64.41 91.21C64.55 88.41 65.53 85.76 66.94 83.52C64.83 81.85 62.17 80.87 59.5 80.87C53.47 80.87 48.42 85.34 47.72 91.21ZM95.55 91.07C94.85 83.94 88.68 78.35 81.39 78.35C74.09 78.35 67.92 83.94 67.22 91.07L95.55 91.07Z"></path><path id="Path" class="shp0" d="M87.48 33.17C87.64 31.9 86.73 30.78 85.45 30.62L72.79 29.02C71.51 28.86 70.38 29.76 70.22 31.04C70.06 32.32 70.97 33.44 72.25 33.6L79.15 34.45L61.51 48.09L58.52 43.03C58.15 42.45 57.56 41.97 56.87 41.86C56.17 41.7 55.42 41.91 54.89 42.34L36.45 56.57C35.39 57.42 35.17 58.96 36.03 60.03C36.45 60.56 37.04 60.88 37.68 60.99C38.32 61.04 38.97 60.88 39.5 60.51L55.58 48.04L58.58 53.1C58.95 53.69 59.54 54.17 60.23 54.28C60.93 54.44 61.67 54.22 62.21 53.8L82.19 38.34L81.34 45.43C81.28 46.07 81.44 46.66 81.82 47.14C82.19 47.62 82.73 47.93 83.37 47.99C83.95 48.04 84.6 47.88 85.08 47.51C85.56 47.14 85.88 46.55 85.93 45.96L87.48 33.17Z"></path></g></g><path id="Oval Copy 2" class="shp1" d="M63.5 126C98.02 126 126 98.02 126 63.5C126 28.98 98.02 1 63.5 1C28.98 1 1 28.98 1 63.5C1 98.02 28.98 126 63.5 126Z"></path></g></g></g></g></g></svg>