<svg xmlns="http://www.w3.org/2000/svg" viewBox="0 0 128 127" width="128" height="127"><defs><clipPath clipPathUnits="userSpaceOnUse" id="cp1"><path d="M-1018 -4057L422 -4057L422 818L-1018 818Z"></path></clipPath></defs><style>
		tspan { white-space:pre }
		.shp0 { fill: #4d79ac } 
		.shp1 { fill: none;stroke: #4d79ac;stroke-width: 2 } 
	</style><g id="Find Work - 4 - Static" clip-path="url(#cp1)"><g id="FAQ/Map"><g id="Group 11"><g id="Tasker/Static/Location"><g id="Group 11"><g id="Icons/Cities Served Copy"><g id="Cities Served"><path id="Path" fill-rule="evenodd" class="shp0" d="M85.53 36.92C93.38 47.27 93.38 61.61 85.52 71.96L62.6 101.94L39.68 71.95C31.82 61.61 31.82 47.27 39.68 36.92C45.14 29.72 53.54 25.59 62.6 25.59C71.67 25.59 80.06 29.72 85.53 36.92ZM43.76 39.61C37.29 48.13 37.29 59.93 43.75 68.43L62.6 93.07L81.45 68.44C87.85 60.02 87.91 48.37 81.64 39.88L81.45 39.62C76.95 33.7 70.08 30.32 62.6 30.32C55.13 30.32 48.25 33.7 43.76 39.61Z"></path><path id="Path" class="shp0" d="M64.6 40.32C72 40.32 78.05 46.37 78.05 53.77C78.05 61.16 72 67.21 64.6 67.21C57.21 67.21 51.16 61.16 51.16 53.77C51.16 46.37 57.21 40.32 64.6 40.32Z"></path></g></g><path id="Oval" class="shp1" d="M63.5 126C98.02 126 126 98.02 126 63.5C126 28.98 98.02 1 63.5 1C28.98 1 1 28.98 1 63.5C1 98.02 28.98 126 63.5 126Z"></path></g></g></g></g></g></svg>