<?xml version="1.0" encoding="utf-8"?>
<!-- Generator: Adobe Illustrator 26.0.0, SVG Export Plug-In . SVG Version: 6.00 Build 0)  -->
<svg version="1.1" id="Layer_1" xmlns="http://www.w3.org/2000/svg" xmlns:xlink="http://www.w3.org/1999/xlink" x="0px" y="0px"
	 viewBox="0 0 73.6 73.6" style="enable-background:new 0 0 73.6 73.6;" xml:space="preserve">
<style type="text/css">
	.st0{fill:none;stroke:#406FAA;stroke-width:2;stroke-miterlimit:10;}
	.st1{fill:none;stroke:#406FAA;stroke-width:1.7;stroke-linecap:round;stroke-linejoin:round;stroke-miterlimit:10;}
</style>
<circle class="st0" cx="36.8" cy="36.8" r="34.2"/>
<path class="st1" d="M51.9,35l-5.6,5.7c-0.1,0.1-0.3,0.1-0.5,0l-3.1-3.1"/>
<path class="st1" d="M39.1,37.5c0-4.2,3.2-7.7,7.3-8v-6.9h-22v30h22v-7.2C42.4,45.2,39.1,41.8,39.1,37.5z"/>
<path class="st1" d="M46.5,21.7c0-2.8-2.2-5-5-5h-12c-2.8,0-5,2.2-5,5v1h22V21.7z M34.5,19.6h2H34.5z"/>
<path class="st1" d="M24.5,53.4c0,2.8,2.2,5,5,5h12c2.8,0,5-2.2,5-5v-0.7h-22V53.4z M35.5,54.9c0.4,0,0.7,0.3,0.7,0.7
	c0,0.4-0.3,0.7-0.7,0.7s-0.7-0.3-0.7-0.7C34.8,55.2,35.1,54.9,35.5,54.9z"/>
<line class="st1" x1="46.5" y1="22.7" x2="24.5" y2="22.7"/>
<line class="st1" x1="24.5" y1="52.7" x2="46.5" y2="52.7"/>
<path class="st1" d="M35.5,56.3c0.4,0,0.7-0.3,0.7-0.7c0-0.4-0.3-0.7-0.7-0.7s-0.7,0.3-0.7,0.7C34.8,56,35.1,56.3,35.5,56.3z"/>
<line class="st1" x1="34.5" y1="19.6" x2="36.5" y2="19.6"/>
<path class="st1" d="M47.1,29.5c-0.2,0-0.4,0-0.6,0c-4.1,0.3-7.3,3.8-7.3,8s3.2,7.7,7.3,8c0.2,0,0.4,0,0.6,0c4.4,0,8-3.6,8-8
	S51.5,29.5,47.1,29.5z"/>
</svg>
