<svg xmlns="http://www.w3.org/2000/svg" viewBox="0 0 126 125" width="126" height="125"><defs><clipPath clipPathUnits="userSpaceOnUse" id="cp1"><path d="M-1198 -2572L242 -2572L242 2813L-1198 2813Z"></path></clipPath></defs><style>
		tspan { white-space:pre }
		.shp0 { fill: #604d8d;stroke: #604d8d;stroke-width: 2 } 
		.shp1 { fill: #ffffff } 
	</style><g id="Hire Help - 4 - Active" clip-path="url(#cp1)"><g id="Hyer Standard"><g id="Group 18"><g id="Business/Active/Community"><g id="Group 36"><path id="Oval Copy 8" class="shp0" d="M63 125C97.52 125 125.5 97.02 125.5 62.5C125.5 27.98 97.52 0 63 0C28.48 0 0.5 27.98 0.5 62.5C0.5 97.02 28.48 125 63 125Z"></path><g id="Icons/Community"><g id="Unknown-19"><path id="Shape" fill-rule="evenodd" class="shp1" d="M99.5 85.74C99.5 86.44 98.93 87 98.23 87L72.77 87C72.07 87 71.5 86.44 71.5 85.74C71.5 79.84 75.28 74.81 80.58 72.84C78.51 71.34 77.16 68.94 77.16 66.23C77.16 61.69 80.9 58 85.5 58C90.1 58 93.84 61.69 93.84 66.23C93.84 68.94 92.49 71.34 90.42 72.84C95.72 74.81 99.5 79.84 99.5 85.74ZM85.5 71.94C88.7 71.94 91.3 69.38 91.3 66.23C91.3 63.07 88.7 60.51 85.5 60.51C82.3 60.51 79.7 63.07 79.7 66.23C79.7 69.38 82.3 71.94 85.5 71.94ZM96.88 84.49C96.25 78.85 91.39 74.45 85.5 74.45C79.61 74.45 74.75 78.85 74.12 84.49L96.88 84.49Z"></path><path id="Path" class="shp1" d="M81.48 90.25C76.2 94.21 69.98 96.3 63.49 96.3C57.01 96.3 50.8 94.21 45.52 90.26C44.94 89.83 44.14 89.97 43.74 90.58C43.33 91.18 43.46 92.03 44.04 92.46C49.75 96.74 56.48 99 63.49 99C70.51 99 77.25 96.73 82.96 92.45C83.54 92.02 83.67 91.17 83.26 90.57C82.85 89.96 82.06 89.82 81.48 90.25Z"></path><path id="Path" class="shp1" d="M76.25 37.47C84.14 41.12 90.23 47.92 92.96 56.11C93.15 56.66 93.65 57 94.2 57C94.33 57 94.47 56.98 94.61 56.93C95.29 56.71 95.66 55.97 95.43 55.3C92.47 46.43 85.88 39.07 77.35 35.12C76.7 34.82 75.92 35.1 75.62 35.75C75.32 36.4 75.6 37.17 76.25 37.47Z"></path><path id="Path" class="shp1" d="M31.39 56.93C31.53 56.98 31.66 57 31.8 57C32.35 57 32.85 56.66 33.03 56.11C35.77 47.91 41.86 41.12 49.75 37.47C50.4 37.17 50.68 36.4 50.38 35.75C50.08 35.1 49.3 34.82 48.65 35.12C40.12 39.07 33.53 46.42 30.57 55.3C30.34 55.97 30.71 56.71 31.39 56.93Z"></path><path id="Shape" fill-rule="evenodd" class="shp1" d="M53.23 87L27.77 87C27.07 87 26.5 86.44 26.5 85.74C26.5 79.78 30.36 74.7 35.75 72.78L35.48 72.78C33.46 71.28 32.16 68.9 32.16 66.23C32.16 61.69 35.9 58 40.5 58C45.1 58 48.84 61.69 48.84 66.23C48.84 68.9 47.54 71.28 45.52 72.78L45.25 72.78C50.64 74.7 54.5 79.78 54.5 85.74C54.5 86.44 53.93 87 53.23 87ZM40.5 71.94C43.7 71.94 46.3 69.38 46.3 66.23C46.3 63.07 43.7 60.51 40.5 60.51C37.3 60.51 34.7 63.07 34.7 66.23C34.7 69.38 37.3 71.94 40.5 71.94ZM51.88 84.49C51.25 78.85 46.39 74.45 40.5 74.45C34.61 74.45 29.75 78.85 29.12 84.49L51.88 84.49Z"></path><path id="Shape" fill-rule="evenodd" class="shp1" d="M58.57 41.84C56.51 40.34 55.16 37.94 55.16 35.23C55.16 30.69 58.9 27 63.5 27C68.1 27 71.84 30.69 71.84 35.23C71.84 37.94 70.49 40.34 68.43 41.84C73.72 43.81 77.5 48.84 77.5 54.74C77.5 55.44 76.93 56 76.23 56L50.77 56C50.07 56 49.5 55.44 49.5 54.74C49.5 48.84 53.28 43.81 58.57 41.84ZM63.5 40.94C66.7 40.94 69.3 38.38 69.3 35.23C69.3 32.07 66.7 29.51 63.5 29.51C60.3 29.51 57.7 32.07 57.7 35.23C57.7 38.38 60.3 40.94 63.5 40.94ZM52.12 53.49L74.88 53.49C74.25 47.85 69.39 43.45 63.5 43.45C57.61 43.45 52.75 47.85 52.12 53.49Z"></path></g></g></g></g></g></g></g></svg>