<svg xmlns="http://www.w3.org/2000/svg" xmlns:xlink="http://www.w3.org/1999/xlink" id="Layer_1" x="0px" y="0px" viewBox="0 0 73.6 73.6" style="enable-background:new 0 0 73.6 73.6;" xml:space="preserve"><style type="text/css">	.st0{fill:none;stroke:#604D8C;stroke-width:2;stroke-miterlimit:10;}	.st1{fill:none;stroke:#604D8C;stroke-width:1.7;stroke-linecap:round;stroke-linejoin:round;stroke-miterlimit:10;}</style><circle class="st0" cx="36.8" cy="36.8" r="34.2"></circle><g>	<path class="st1" d="M50,34.6c-1.8-1.2-4.2-0.9-5.7,0.6L37.5,42c-1.5,1.5-1.8,3.9-0.6,5.7l6.7,9.9l16.3-16.3L50,34.6z"></path>	<path class="st1" d="M42,37.5l-2.2,2.2L20.2,20.1c-0.6-0.6-0.6-1.6,0-2.2l0,0c0.6-0.6,1.6-0.6,2.2,0L42,37.5z"></path>	<line class="st1" x1="37.4" y1="48.5" x2="50.8" y2="35.2"></line>	<line class="st1" x1="49" y1="46.7" x2="51.8" y2="49.5"></line>	<line class="st1" x1="50.7" y1="41.9" x2="56.1" y2="45.1"></line>	<line class="st1" x1="42.5" y1="47.8" x2="46.9" y2="54.4"></line>	<path class="st1" d="M22.9,39.1v1.5c0,1.7,1.4,3.1,3.1,3.1h1.5"></path>	<path class="st1" d="M24.4,51.4H26c1.7,0,3.1-1.4,3.1-3.1v-1.5"></path>	<line class="st1" x1="18.4" y1="49" x2="19.8" y2="52.9"></line>	<line class="st1" x1="35.2" y1="52.9" x2="31.4" y2="54.5"></line></g></svg>