<svg xmlns="http://www.w3.org/2000/svg" viewBox="0 0 127 127" width="127" height="127"><defs><clipPath clipPathUnits="userSpaceOnUse" id="cp1"><path d="M-297 -4057L1143 -4057L1143 818L-297 818Z"></path></clipPath></defs><style>
		tspan { white-space:pre }
		.shp0 { fill: #4d79ac } 
		.shp1 { fill: none;stroke: #4d79ac;stroke-width: 2 } 
	</style><g id="Find Work - 4 - Static" clip-path="url(#cp1)"><g id="FAQ/Map"><g id="Group 9"><g id="Tasker/Static/FAQ"><g id="Group 9"><g id="Combined Shape"><path id="Combined Shape" fill-rule="evenodd" class="shp0" d="M99.38 39.63L99.38 85.39C99.38 89.58 95.96 93.01 91.78 93.01L80.38 93.01L65.19 108.27L49.99 93.01L38.6 93.01C34.42 93.01 31 89.58 31 85.39L31 39.63C31 35.43 34.42 32 38.6 32L91.78 32C95.96 32 99.38 35.43 99.38 39.63ZM89.61 36.92L41.42 36.92C37.84 36.92 36.21 38.58 36.21 42.2L36.21 82.96C36.21 86.58 37.84 88.24 41.42 88.24L52.49 88.24L65.51 101.39L78.54 88.24L89.61 88.24C93.19 88.24 94.82 86.58 94.82 82.96L94.82 42.2C94.82 38.58 93.19 36.92 89.61 36.92Z"></path><path id="Combined Shape" class="shp0" d="M65.52 50.88C67.82 50.88 69.35 52.42 69.35 54.73C69.35 55.89 68.97 57.04 67.82 57.81C63.98 60.51 61.68 64.74 61.68 68.98L61.68 70.13L69.35 70.13L69.35 68.98C69.35 66.28 71.27 64.74 72.42 63.97C75.11 61.66 77.02 58.2 77.02 54.73C77.02 48.18 72.04 43.18 65.52 43.18C59 43.18 54.01 48.18 54.01 54.73L61.68 54.73C61.68 52.42 63.22 50.88 65.52 50.88ZM65.51 81.49C67.67 81.49 69.42 79.74 69.42 77.59C69.42 75.43 67.67 73.68 65.51 73.68C63.36 73.68 61.61 75.43 61.61 77.59C61.61 79.74 63.36 81.49 65.51 81.49Z"></path></g><path id="Oval" class="shp1" d="M63.5 126C98.02 126 126 98.02 126 63.5C126 28.98 98.02 1 63.5 1C28.98 1 1 28.98 1 63.5C1 98.02 28.98 126 63.5 126Z"></path></g></g></g></g></g></svg>