<svg xmlns="http://www.w3.org/2000/svg" viewBox="0 0 107 107" width="107" height="107"><defs><clipPath clipPathUnits="userSpaceOnUse" id="cp1"><path d="M-1191 -973L249 -973L249 3902L-1191 3902Z"></path></clipPath></defs><style>
		tspan { white-space:pre }
		.shp0 { fill: none;stroke: #4d79ac;stroke-width: 2 } 
		.shp1 { fill: #4d79ac } 
	</style><g id="Find Work - 4 - Static" clip-path="url(#cp1)"><g id="Easy to Use"><g id="Get Paid"><g id="Tasker-Get Paid-Static"><g id="Group 27"><path id="Oval Copy 9" class="shp0" d="M53.5 106C82.49 106 106 82.49 106 53.5C106 24.51 82.49 1 53.5 1C24.5 1 1 24.51 1 53.5C1 82.49 24.5 106 53.5 106Z"></path><g id="Unknown-45"><path id="Shape" fill-rule="evenodd" class="shp1" d="M86.69 41.36C86.89 41.57 87 41.84 87 42.13L87 76.91C87 77.2 86.89 77.48 86.69 77.68C86.49 77.89 86.22 78 85.94 78L22.06 78C21.78 78 21.51 77.89 21.31 77.68C21.11 77.48 21 77.2 21 76.91L21 42.13C21.01 42.09 21.01 42.05 21.02 42.01C21.03 41.94 21.04 41.88 21.05 41.82C21.06 41.79 21.07 41.77 21.08 41.74C21.1 41.7 21.12 41.66 21.14 41.62C21.17 41.56 21.2 41.52 21.23 41.47C21.25 41.44 21.27 41.42 21.29 41.4C21.32 41.37 21.35 41.34 21.39 41.31C21.43 41.27 21.47 41.24 21.52 41.21C21.55 41.19 21.58 41.17 21.61 41.16C21.65 41.14 21.69 41.12 21.73 41.11C21.76 41.1 21.79 41.08 21.83 41.07L77.18 28.03C77.5 27.95 77.83 28.03 78.08 28.24C78.34 28.44 78.48 28.76 78.48 29.09L78.48 34.87L81.56 34.53C81.86 34.5 82.16 34.59 82.39 34.8C82.61 35.01 82.74 35.3 82.74 35.61L82.74 41.04L85.94 41.04C86.22 41.04 86.49 41.16 86.69 41.36ZM80.61 36.82L41.99 41.04L80.61 41.04L80.61 36.82ZM76.35 30.45L39.56 39.12L76.35 35.1L76.35 30.45ZM84.87 43.22L23.13 43.22L23.13 75.83L84.87 75.83L84.87 43.22ZM81.67 48.64C82.26 48.64 82.74 49.13 82.74 49.73L82.75 69.29C82.75 69.58 82.63 69.86 82.43 70.06C82.23 70.26 81.96 70.38 81.68 70.38C81.12 70.38 80.58 70.61 80.18 71.02C79.78 71.42 79.55 71.98 79.55 72.55C79.55 73.15 79.08 73.64 78.49 73.64L29.52 73.66C28.93 73.66 28.46 73.18 28.46 72.58C28.46 71.38 27.5 70.4 26.33 70.4L26.33 70.4C25.74 70.4 25.26 69.92 25.26 69.32L25.25 49.75C25.25 49.46 25.37 49.19 25.57 48.98C25.77 48.78 26.04 48.66 26.32 48.66C26.88 48.66 27.42 48.43 27.82 48.03C28.22 47.62 28.45 47.07 28.45 46.49C28.45 45.89 28.92 45.4 29.51 45.4L78.48 45.38C79.07 45.38 79.54 45.87 79.54 46.47C79.54 47.67 80.5 48.64 81.67 48.64L81.67 48.64ZM78.67 69.48C79.21 68.93 79.88 68.54 80.62 68.34L80.61 50.68C79.11 50.28 77.94 49.09 77.55 47.56L30.44 47.58C30.05 49.11 28.88 50.3 27.38 50.7L27.39 68.37C28.89 68.76 30.06 69.96 30.45 71.49L77.56 71.47C77.75 70.72 78.13 70.03 78.67 69.48ZM37.09 57.21C38.01 58.15 38.28 59.55 37.79 60.77C37.29 61.99 36.13 62.78 34.84 62.78L34.84 62.78C33.07 62.78 31.64 61.32 31.64 59.52C31.64 57.72 33.07 56.26 34.84 56.26L34.84 56.26C35.68 56.26 36.5 56.6 37.09 57.22L37.09 57.21ZM35.9 59.52C35.9 58.92 35.42 58.44 34.84 58.43L34.84 58.43C34.25 58.43 33.77 58.92 33.77 59.52C33.77 60.12 34.25 60.61 34.84 60.61L34.84 60.61C35.12 60.61 35.39 60.49 35.59 60.29C35.79 60.09 35.9 59.81 35.9 59.52L35.9 59.52ZM73.16 56.26C74.92 56.26 76.35 57.72 76.35 59.52C76.35 61.32 74.92 62.78 73.16 62.78L73.16 62.78C71.4 62.78 69.97 61.32 69.96 59.52L69.96 59.52C69.97 57.72 71.4 56.26 73.16 56.26L73.16 56.26ZM73.91 60.29C74.22 59.98 74.31 59.51 74.14 59.11C73.98 58.7 73.59 58.44 73.16 58.43L73.16 58.43C72.57 58.43 72.09 58.92 72.09 59.52C72.09 60.12 72.57 60.61 73.16 60.61L73.16 60.61C73.44 60.61 73.71 60.49 73.91 60.29ZM54 49.74C59.29 49.75 63.57 54.12 63.58 59.52C63.58 64.92 59.29 69.3 54 69.3C48.71 69.3 44.42 64.92 44.42 59.52C44.42 54.12 48.71 49.74 54 49.74ZM54 67.13C58.11 67.13 61.45 63.72 61.45 59.52C61.45 55.32 58.12 51.91 54 51.91C49.88 51.91 46.55 55.32 46.55 59.52C46.55 63.72 49.88 67.13 54 67.13ZM56.56 59.95C56.87 60.31 57.04 60.77 57.03 61.24C57.04 61.83 56.8 62.4 56.35 62.79C55.8 63.24 55.12 63.51 54.41 63.55L54.41 64.96L53.56 64.96L53.56 63.59C52.67 63.6 51.79 63.43 50.97 63.09L50.97 61.72C51.38 61.92 51.81 62.07 52.25 62.18C52.68 62.29 53.12 62.36 53.56 62.37L53.56 59.94L53.03 59.74C52.45 59.54 51.93 59.21 51.5 58.76C51.18 58.37 51.01 57.87 51.02 57.35C51.01 56.78 51.26 56.23 51.71 55.88C52.24 55.46 52.89 55.22 53.56 55.18L53.56 54.09L54.41 54.09L54.41 55.16C55.25 55.18 56.08 55.37 56.86 55.69L56.39 56.88C55.76 56.62 55.09 56.46 54.41 56.4L54.41 58.76L54.89 58.95C55.51 59.16 56.09 59.5 56.56 59.95ZM53.56 56.42C53.28 56.45 53.01 56.56 52.78 56.74C52.61 56.89 52.51 57.11 52.52 57.34C52.51 57.57 52.59 57.79 52.74 57.96C52.98 58.18 53.26 58.34 53.56 58.45L53.56 56.42ZM54.41 62.32L54.41 62.32C54.41 62.32 54.41 62.32 54.41 62.32L54.41 62.32ZM54.41 62.32C55.15 62.2 55.53 61.87 55.53 61.34C55.53 61.1 55.44 60.88 55.27 60.72C55.01 60.51 54.72 60.35 54.41 60.25L54.41 62.32Z"></path></g></g></g></g></g></g></svg>