<svg xmlns="http://www.w3.org/2000/svg" viewBox="0 0 107 108" width="107" height="108"><defs><clipPath clipPathUnits="userSpaceOnUse" id="cp1"><path d="M-1191 -901L249 -901L249 4484L-1191 4484Z"></path></clipPath></defs><style>
		tspan { white-space:pre }
		.shp0 { fill: none;stroke: #604d8d;stroke-width: 2 } 
		.shp1 { fill: none;stroke: #604d8d;stroke-linecap:round;stroke-linejoin:round;stroke-width: 3 } 
	</style><g id="Hire Help - 4 - Static" clip-path="url(#cp1)"><g id="Ready to Try?"><g id="Hire Help"><g id="Business/Static/Hire Help"><g id="Group 12"><path id="Oval Copy 9" class="shp0" d="M53.5 106C82.49 106 106 82.49 106 53.5C106 24.5 82.49 1 53.5 1C24.5 1 1 24.5 1 53.5C1 82.49 24.5 106 53.5 106Z"></path><path id="Shape" fill-rule="evenodd" class="shp1" d="M64.41 44.96C64.41 50.46 59.96 54.92 54.47 54.92C48.99 54.92 44.54 50.46 44.54 44.96C44.54 39.46 48.99 35 54.47 35C59.96 35 64.41 39.46 64.41 44.96ZM37.92 72C37.92 62.57 45.12 54.92 54 54.92C62.88 54.92 70.08 62.57 70.08 72L37.92 72ZM84.27 50.65C84.27 55.11 80.67 58.72 76.23 58.72C71.79 58.72 68.19 55.11 68.19 50.65C68.19 46.2 71.79 42.59 76.23 42.59C80.67 42.59 84.27 46.2 84.27 50.65ZM69.14 60.99C73.04 58.24 78.09 57.97 82.25 60.27C86.41 62.58 89.01 67.09 89 72L71.86 72M39.81 50.65C39.81 55.11 36.21 58.72 31.77 58.72C27.33 58.72 23.73 55.11 23.73 50.65C23.73 46.2 27.33 42.59 31.77 42.59C36.21 42.59 39.81 46.2 39.81 50.65ZM37.17 72L19 72C19.02 66.95 21.82 62.34 26.23 60.1C30.63 57.86 35.89 58.37 39.81 61.42"></path></g></g></g></g></g></svg>