<svg xmlns="http://www.w3.org/2000/svg" viewBox="0 0 105 105" width="105" height="105"><defs><clipPath clipPathUnits="userSpaceOnUse" id="cp1"><path d="M-883 -974L557 -974L557 3901L-883 3901Z"></path></clipPath></defs><style>
		tspan { white-space:pre }
		.shp0 { fill: #4d79ac } 
		.shp1 { fill: #ffffff } 
	</style><g id="Find Work - 4 - Active" clip-path="url(#cp1)"><g id="Easy to Use"><g id="Showcase"><g id="Tasker/Active/Hye Five"><g id="Group 19"><path id="Oval" class="shp0" d="M52.5 105C81.49 105 105 81.49 105 52.5C105 23.51 81.49 0 52.5 0C23.5 0 0 23.51 0 52.5C0 81.49 23.5 105 52.5 105Z"></path><g id="Icons/Hands"><g id="Hands"><path id="Shape" fill-rule="evenodd" class="shp1" d="M70.68 27.36C72.08 25.39 74.72 24.47 77.12 25.32C78.55 25.83 79.68 26.85 80.3 28.19C80.89 29.46 81 30.88 80.59 32.21L80.51 32.46L80.39 32.79L80.57 32.79C80.9 32.81 81.23 32.86 81.55 32.95L81.79 33.02L82.02 33.11C83.45 33.62 84.59 34.64 85.21 35.98C85.8 37.25 85.9 38.67 85.49 40.01L85.41 40.26L81.13 51.93L81.86 51.64L82.15 51.53C85.27 50.26 88.28 50.79 90 53C91.81 55.31 91.46 58.75 89.27 60.61L84.71 64.39L81.73 66.82C78.72 69.27 76.34 71.15 74.94 72.18C71.87 74.43 68.24 75.61 64.43 75.61C62.25 75.61 60.09 75.24 58.02 74.53C57.26 74.26 56.57 73.97 55.93 73.65L55.55 73.45L55.25 73.28L55.08 73.52C53.29 76.02 50.86 77.99 48 79.31L47.6 79.49L47.22 79.65C44.98 80.54 42.63 81 40.35 81C36.88 81 33.43 79.91 30.62 77.92L30.11 77.55C26.68 75.06 18.53 68.67 16.52 66.95L16.17 66.64L16.04 66.54C13.93 64.76 13.37 61.67 14.74 59.35L14.87 59.15L14.99 58.97C15.82 57.73 17.16 56.9 18.62 56.69C19.86 56.5 21.19 56.82 22.35 57.52L22.58 57.67L23.98 58.51L18.86 45.59C17.79 42.88 19.02 39.78 21.57 38.51L21.76 38.42L21.95 38.34C22.35 38.18 22.77 38.08 23.19 38.03L23.44 38L23.48 38L23.33 37.63C22.26 34.92 23.49 31.82 26.05 30.55L26.24 30.46L26.43 30.38C27.8 29.85 29.26 29.88 30.58 30.49C31.39 30.86 32.09 31.39 32.65 32.05L32.84 32.29L32.87 32.27C33.19 32 33.53 31.76 33.9 31.56L34.19 31.42L34.43 31.32C35.8 30.79 37.26 30.82 38.57 31.43C39.87 32.02 40.92 33.08 41.44 34.34L41.53 34.56L41.95 35.58L42.02 35.53C42.29 35.31 42.59 35.12 42.9 34.96L43.13 34.85L43.37 34.74C44.74 34.22 46.2 34.24 47.52 34.85C48.82 35.45 49.87 36.5 50.39 37.77L50.48 37.99L50.88 39.01L52.83 33.55C53.9 30.75 56.83 29.23 59.57 29.97L59.76 30.03L59.96 30.1C60.35 30.21 60.73 30.39 61.09 30.61L61.3 30.74L61.47 30.87L61.86 29.78C62.94 27.05 65.88 25.56 68.67 26.32L68.87 26.38L69.07 26.44C69.47 26.6 69.85 26.81 70.21 27.05L70.48 27.24L70.66 27.39L70.68 27.36ZM27.95 34.2C27.17 34.51 26.78 35.37 27.04 36.24L27.08 36.37L29.21 41.84L29.25 41.94C29.27 42 29.28 42.06 29.29 42.14L29.29 42.17L33.03 51.65C33.33 52.54 32.95 53.61 32.12 54.05L32.02 54.1L32.01 54.11C31.9 54.17 31.79 54.22 31.67 54.25L31.55 54.27C31.43 54.29 31.35 54.29 31.23 54.29C30.53 54.29 29.83 53.85 29.5 53.17L29.44 53.03L25.59 43.18L25.53 43.07C25.31 42.73 25.02 42.46 24.72 42.3L24.59 42.24C24.22 42.08 23.85 42.07 23.57 42.16C22.78 42.47 22.4 43.33 22.65 44.19L22.7 44.33L30.01 62.64C30.33 63.44 30.14 64.39 29.45 64.9C28.82 65.37 27.95 65.48 27.29 65.07L27.23 65.04L20.34 60.92L20.34 60.9L20.24 60.86C20.05 60.8 19.85 60.77 19.63 60.78L19.47 60.79C19.09 60.84 18.7 61.09 18.49 61.41C17.99 62.18 18.12 63.21 18.8 63.82L19.39 64.31C21.73 66.19 30.34 72.96 32.78 74.73C36.49 77.3 41.24 77.77 45.69 76.01C52.86 73.15 56.45 65.11 53.96 57.6L53.86 57.31L46.98 39.5C46.82 39.06 46.49 38.72 46.1 38.56C45.72 38.4 45.29 38.4 44.9 38.56C44.11 38.88 43.73 39.74 43.98 40.6L44.03 40.74L47.23 48.91C47.56 49.89 47.05 51.09 46.05 51.42C45.11 51.73 43.97 51.29 43.59 50.41L40.51 42.32L40.48 42.29L40.44 42.23L40.41 42.15C40.36 42.07 40.34 42 40.32 41.93L40.31 41.86L38.03 36.16C37.89 35.77 37.61 35.46 37.28 35.28L37.15 35.22C36.78 35.06 36.35 35.06 35.95 35.23C35.17 35.54 34.78 36.4 35.05 37.3L35.17 37.66L39.49 48.91C39.78 49.8 39.4 50.87 38.57 51.31L38.46 51.37C38.35 51.43 38.24 51.48 38.12 51.51L38 51.53C37.88 51.55 37.8 51.55 37.68 51.55C36.98 51.55 36.28 51.11 35.95 50.43L35.89 50.29L31.41 38.73L30.03 35.13C29.87 34.7 29.54 34.36 29.15 34.19C28.78 34.03 28.35 34.03 27.95 34.2ZM73.94 30.02L73.88 30.15L72.6 33.74L68.11 46.45C67.8 47.21 67.04 47.7 66.24 47.7C66.09 47.7 66.02 47.69 65.89 47.65L65.79 47.62L65.71 47.62L65.53 47.54C64.57 47.13 64.06 46.14 64.31 45.19L64.35 45.05L68.64 32.65L68.78 32.25C68.88 31.91 68.85 31.5 68.73 31.13L68.69 31.02L68.62 30.92C68.43 30.64 68.17 30.41 67.89 30.26L67.76 30.19C66.96 29.93 66.06 30.33 65.68 31.13L65.63 31.27L63.41 37.36L63.37 37.4L60.28 46.11C59.99 46.82 59.31 47.3 58.56 47.35L58.41 47.36C58.27 47.36 58.2 47.35 58.06 47.31L57.96 47.27L57.85 47.27L57.66 47.18C56.79 46.75 56.33 45.77 56.56 44.85L56.61 44.7L59.73 35.91C59.84 35.64 59.83 35.21 59.7 34.81L59.66 34.71L59.59 34.6C59.4 34.32 59.14 34.09 58.86 33.94L58.72 33.87C57.93 33.61 57.03 34.01 56.66 34.81L56.6 34.94L53.18 44.64L57.63 56.01L57.77 56.42C59.19 60.72 59.03 65.34 57.37 69.46L57.23 69.8L57.27 69.82C57.86 70.15 58.46 70.43 59.05 70.65L59.4 70.77C63.96 72.39 68.97 71.73 72.57 69.02L73.14 68.58C76.43 66.04 85.6 58.59 86.5 57.8L86.56 57.74L86.67 57.66C87.34 57.07 87.44 56.06 86.83 55.29C86.25 54.48 85.13 54.5 83.61 55.08L82.29 55.62C79.82 56.6 75.63 58.24 75.3 58.36C74.85 58.5 74.39 58.5 73.89 58.33C70.81 57.06 69.17 57.38 66.69 59.27L65.86 59.93C65.83 59.95 65.8 59.97 65.77 60C64.95 60.66 63.69 60.51 63.03 59.69C62.38 58.87 62.53 57.62 63.35 56.96L64.13 56.36C67.45 53.82 70.28 53 74.37 54.38L74.65 54.48L75.34 54.21C75.45 54.17 75.55 54.13 75.65 54.09L76.19 53.88L81.74 38.91C81.86 38.63 81.85 38.2 81.72 37.8L81.68 37.7L81.61 37.6C81.41 37.31 81.15 37.09 80.86 36.93L80.7 36.86C80.09 36.62 79.17 37.01 78.73 37.74L78.68 37.84L74.65 48.93C74.36 49.65 73.67 50.12 72.92 50.18L72.77 50.18C72.63 50.18 72.56 50.17 72.43 50.13L72.32 50.1L72.21 50.1L72.02 50C71.16 49.57 70.7 48.59 70.93 47.66L70.97 47.52L75.06 36.31L75.1 36.31L75.11 36.27L77.01 31.12C77.13 30.84 77.12 30.41 76.98 30.01L76.95 29.91L76.88 29.81C76.68 29.52 76.42 29.29 76.1 29.13L75.98 29.07L75.88 29.04C75.16 28.87 74.39 29.22 74.01 29.89L73.94 30.02Z"></path></g></g></g></g></g></g></g></svg>