<svg xmlns="http://www.w3.org/2000/svg" xmlns:xlink="http://www.w3.org/1999/xlink" id="Layer_1" x="0px" y="0px" viewBox="0 0 73.6 73.6" style="enable-background:new 0 0 73.6 73.6;" xml:space="preserve"><style type="text/css">	.st0{fill:none;stroke:#406FAA;stroke-width:2;stroke-miterlimit:10;}	.st1{fill:#406FAA;}</style><circle class="st0" cx="36.8" cy="36.8" r="34.2"></circle><g>	<g>		<path class="st1" d="M47.2,42.9l-0.4-0.1c-1-0.4-2.9-1.3-3-1.3c-0.4-0.2-0.8-0.1-1,0.3l-3.7,7L38.7,48c0.4-0.3,0.7-0.7,0.8-1.1   l0.4-2.4c0.1-0.4,0-0.9-0.3-1.2c-0.2-0.3-0.6-0.6-1-0.6H35c-0.4,0-0.8,0.3-1,0.6c-0.2,0.3-0.3,0.7-0.3,1.1l0.4,2.5   c0.1,0.4,0.4,0.9,0.8,1.1l-0.3,0.8l-3.7-7c-0.2-0.4-0.7-0.5-1-0.3c-0.1,0.1-2.4,1.2-3.5,1.6c-3.3,1.2-5.5,3.3-5.5,5.2v6.5   c0,0.4,0.3,0.8,0.8,0.8c0.4,0,0.8-0.3,0.8-0.8v-6.5c0-1.3,1.9-2.9,4.4-3.8c1.2-0.4,2.2-0.8,3-1.2l4.1,7.8c0,0,0,0,0,0   c0.1,0.2,0.2,0.3,0.4,0.4c0.1,0,0.2,0,0.3,0c0.3,0,0.6-0.4,0.7-0.7l0.9-2.9h0.8l0.9,2.9c0.1,0.3,0.4,0.6,0.7,0.6   c0.1,0,0.2,0,0.3,0c0.2-0.1,0.3-0.2,0.4-0.3c0,0,0,0,0,0l4.2-7.8c0.8,0.4,1.7,0.7,2.6,1l0.4,0.1c2.5,0.9,4.4,2.5,4.4,3.8v6.5   c0,0.4,0.3,0.8,0.8,0.8s0.8-0.3,0.8-0.8v-6.5C52.6,46.2,50.4,44,47.2,42.9z M38.4,44.2L38,46.3c0,0,0,0,0,0h-2.3c0,0,0,0,0,0   l-0.4-2.1H38.4z"></path>		<path class="st1" d="M28.6,36c0,0,0,0.1,0.1,0.1c0.8,1.4,1.7,3,2.2,3.6c0.1,0.1,0.1,0.2,0.2,0.3c0.6,0.9,1.7,2.3,5.6,2.3   c4,0,5-1.4,5.7-2.4c0.1-0.1,0.1-0.2,0.2-0.2c0.5-0.7,1.5-2.3,2.2-3.6c0-0.1,0.1-0.1,0.1-0.2c0.2-0.2,1.4-1.5,1.3-3.9   c-0.1-1.3-0.3-1.9-0.5-2.3c-0.1-0.1-0.1-0.1-0.1-0.3c0-0.5,0-1.1,0-1.7c0-0.2,0-0.4,0-0.6c0.1-2.7,0.2-6.2-2.3-8.1   c-0.9-0.7-3.3-2-6.7-2c-3.3,0-6.1,1.4-6.8,2.1c-2.3,2.4-2.3,5.9-2.2,8.7c0,0.6,0,1.2,0,1.7c0,0.1,0,0.1-0.1,0.3   c-0.2,0.5-0.4,1-0.5,2.3C27.2,34.6,28.5,35.9,28.6,36z M28.8,32.2c0.1-1.1,0.2-1.4,0.3-1.7c0.1-0.3,0.2-0.5,0.2-0.9   c0-0.5,0-1.1,0-1.7c-0.1-2.5-0.1-5.7,1.8-7.6c0.4-0.4,2.8-1.6,5.7-1.6c3,0,5.2,1.2,5.7,1.7c1.9,1.5,1.8,4.4,1.7,6.9   c0,0.2,0,0.4,0,0.6c0,0.6,0,1.2,0,1.7c0,0.4,0.1,0.6,0.2,0.9c0.1,0.3,0.3,0.6,0.3,1.7c0.1,1.8-0.8,2.7-0.8,2.7l0,0   c-0.1,0.1-0.2,0.2-0.4,0.5c-0.4,0.7-1.6,2.7-2.1,3.4c-0.1,0.1-0.1,0.2-0.2,0.3c-0.6,0.8-1.3,1.7-4.5,1.7c-3.1,0-3.8-0.9-4.3-1.7   c-0.1-0.1-0.2-0.2-0.3-0.4c-0.3-0.4-1-1.5-2.1-3.4c-0.2-0.3-0.2-0.4-0.4-0.5l0,0C29.6,34.8,28.8,33.9,28.8,32.2z"></path>		<path class="st1" d="M29.8,27.1c0.4,0.2,0.8,0.1,1-0.3c0,0,0.7-1.2,2.2-1.7c0.4-0.1,1,0,1.6,0.1c0.6,0.1,1.3,0.3,2.1,0.3   c0.8,0,1.5-0.1,2.1-0.2c0.7-0.1,1.3-0.2,1.7-0.1c1.4,0.5,2.1,1.6,2.1,1.6c0.1,0.3,0.4,0.4,0.7,0.4c0.1,0,0.3,0,0.4-0.1   c0.4-0.2,0.5-0.7,0.3-1c0-0.1-0.9-1.7-2.9-2.4c-0.8-0.3-1.6-0.1-2.5,0c-0.6,0.1-1.2,0.2-1.9,0.2c-0.6,0-1.2-0.1-1.8-0.2   c-0.8-0.2-1.6-0.3-2.4-0.1c-2.1,0.7-3,2.3-3.1,2.4C29.3,26.4,29.5,26.8,29.8,27.1z"></path>	</g></g></svg>