<?xml version="1.0" encoding="utf-8"?>
<!-- Generator: Adobe Illustrator 22.0.0, SVG Export Plug-In . SVG Version: 6.00 Build 0)  -->
<svg version="1.1" id="Layer_1" xmlns="http://www.w3.org/2000/svg" xmlns:xlink="http://www.w3.org/1999/xlink" x="0px" y="0px"
	 viewBox="0 0 73.6 73.6" style="enable-background:new 0 0 73.6 73.6;" xml:space="preserve">
<style type="text/css">
	.st0{fill:#406FAA;}
	.st1{fill:#FFFFFF;}
	.st2{fill:none;stroke:#FFFFFF;stroke-width:1.2453;stroke-linecap:round;stroke-linejoin:round;stroke-miterlimit:10;}
	.st3{fill:none;stroke:#FFFFFF;stroke-width:1.483;stroke-linecap:round;stroke-linejoin:round;stroke-miterlimit:22.9256;}
	.st4{fill:none;stroke:#FFFFFF;stroke-width:1.5501;stroke-linecap:round;stroke-linejoin:round;stroke-miterlimit:10;}
	
		.st5{fill:none;stroke:#FFFFFF;stroke-width:1.5501;stroke-linecap:round;stroke-linejoin:round;stroke-miterlimit:10;stroke-dasharray:0.3653,3.3975;}
	.st6{fill:none;stroke:#FFFFFF;stroke-width:1.4893;stroke-linecap:round;stroke-linejoin:round;stroke-miterlimit:10;}
	
		.st7{fill:none;stroke:#FFFFFF;stroke-width:1.4893;stroke-linecap:round;stroke-linejoin:round;stroke-miterlimit:10;stroke-dasharray:0.2285,2.4822;}
	.st8{fill:none;stroke:#FFFFFF;stroke-width:1.443;stroke-linecap:round;stroke-linejoin:round;stroke-miterlimit:10;}
	
		.st9{fill:none;stroke:#FFFFFF;stroke-width:1.443;stroke-linecap:round;stroke-linejoin:round;stroke-miterlimit:10;stroke-dasharray:0.281,2.8861;}
	.st10{fill:none;stroke:#FFFFFF;stroke-width:1.4888;stroke-linecap:round;stroke-linejoin:round;stroke-miterlimit:10;}
	.st11{fill:none;}
</style>
<circle class="st0" cx="36.8" cy="36.8" r="34.2"/>
<g>
	<g>
		<path class="st8" d="M23.9,26.7v6.5c0,1.3-1,2.5-2.4,2.9h0l0.4,13.1c0,0.8-0.7,1.5-1.5,1.5l0,0c-0.8,0-1.5-0.7-1.5-1.5L19.3,36h0
			c-1.4-0.4-2.4-1.5-2.4-2.9v-6.5"/>
		<line class="st8" x1="19.2" y1="32.4" x2="19.2" y2="26.7"/>
		<line class="st8" x1="21.5" y1="32.4" x2="21.5" y2="26.7"/>
		<path class="st8" d="M51.7,40.2h1.5l-0.7,9c0,0.8,0.6,1.4,1.4,1.4l0,0c0.8,0,1.4-0.6,1.4-1.4V27.7c0-1-0.6-1.2-1-0.8
			c-0.3,0.2-0.6,0.7-0.8,1.3c-1.1,2.7-2.4,7.9-2.5,11.5C51.1,40,51.4,40.2,51.7,40.2z"/>
		<ellipse transform="matrix(0.9738 -0.2273 0.2273 0.9738 -7.8238 9.3949)" class="st8" cx="36.9" cy="38.7" rx="12" ry="12"/>
		<ellipse transform="matrix(0.9736 -0.2281 0.2281 0.9736 -7.8472 9.4306)" class="st8" cx="36.9" cy="38.7" rx="8.1" ry="8.1"/>
		<line class="st8" x1="31.7" y1="25.5" x2="31.7" y2="23.7"/>
		<line class="st8" x1="42.5" y1="17.4" x2="42.5" y2="25.5"/>
		<line class="st8" x1="39.1" y1="21.5" x2="39.1" y2="24.5"/>
		<line class="st8" x1="35.5" y1="19.8" x2="35.5" y2="24.5"/>
		<line class="st9" x1="39.1" y1="15" x2="39.1" y2="18.6"/>
		<line class="st9" x1="31.7" y1="20.9" x2="31.7" y2="17.3"/>
		<line class="st8" x1="45.8" y1="27.4" x2="45.8" y2="25.6"/>
		<line class="st9" x1="45.8" y1="22.8" x2="45.8" y2="22.3"/>
		<line class="st8" x1="27.9" y1="27.4" x2="27.9" y2="26.1"/>
		<line class="st9" x1="27.9" y1="23.3" x2="27.9" y2="22.8"/>
	</g>
	<polyline class="st10" points="33.4,38.8 36.6,41.6 40.6,36.4 	"/>
</g>
</svg>
