<svg xmlns="http://www.w3.org/2000/svg" xmlns:xlink="http://www.w3.org/1999/xlink" id="Layer_1" x="0px" y="0px" viewBox="0 0 73.6 73.6" style="enable-background:new 0 0 73.6 73.6;" xml:space="preserve"><style type="text/css">	.st0{fill:#604D8C;stroke:#604D8C;stroke-width:2;stroke-miterlimit:10;}	.st1{fill:none;stroke:#FFFFFF;stroke-width:1.5;stroke-miterlimit:2.6131;}</style><circle class="st0" cx="36.8" cy="36.8" r="34.2"></circle><g>	<path class="st1" d="M23.6,24.8c0.1,1.1-0.4,2-1.5,2.6c-1.6,0.8-4.2-0.7-3.8-2.9 M24,23.6l-0.2-1.9c-0.5-2.5-6-2.1-5.8,0.9l0.1,1.2  c0,0.1,0.1,0.1,0.2,0.1l8.3-0.4 M22.5,55.2l1-8.6c0-0.6,0-1.2-0.2-1.8c-0.2-0.9-1.2-4.6-1-5.3l0.7-5.2l0.3-0.1l2.1,1.1  c0.5,0.3,1.1,0.4,1.9,0.1l3.6-2.4c0.3-0.2,0-2.2-0.5-2.1l-3.7,1.5c-0.2,0.1-0.3,0.1-0.5,0c-0.5-0.4-2.3-2.1-2.8-2.3  c-1.7-0.4-6.8-1.3-7.8,0c-0.5,0.9-2.8,4.3-2.6,5.1l2.3,5.1 M16.1,33.3l-0.6,4.5c-0.3,1.3-0.4,2.7-0.2,3.8l1,4.6  c0,0.2,0.1,0.5,0,0.7L16,55.2 M19.1,42.3l0.6,3.8c0.2,0.7,0.2,1,0.1,1.5l-0.6,7.5"></path>	<path class="st1" d="M31.5,50.4h9.6v-7.2h-9.6L31.5,50.4L31.5,50.4z M28.9,18.4v10.4h15 M28.9,36.2v19 M28.9,52.9h15 M31.5,34.6  v3.8h9.6v-7.2h-8.2 M28.9,40.9h15 M31.5,26.3h9.6v-7.2h-9.6L31.5,26.3L31.5,26.3z M43.9,18.4v36.8 M58.8,18.4v36.8 M43.9,28.8h15   M46.5,26.3h9.6v-7.2h-9.6V26.3L46.5,26.3z M43.9,40.9h15 M46.5,38.4h9.6v-7.2h-9.6V38.4L46.5,38.4z M43.9,52.9h15 M46.5,50.4h9.6  v-7.2h-9.6V50.4L46.5,50.4z M36.3,19.2v2.3 M36.3,31.2v2.3 M36.3,43.3v2.3 M51.3,19.2v2.3 M51.3,31.2v2.3 M51.3,43.3v2.3"></path></g></svg>