<svg xmlns="http://www.w3.org/2000/svg" viewBox="0 0 126 125" width="126" height="125"><defs><clipPath clipPathUnits="userSpaceOnUse" id="cp1"><path d="M-388 -2572L1052 -2572L1052 2813L-388 2813Z"></path></clipPath></defs><style>
		tspan { white-space:pre }
		.shp0 { fill: #604d8d;stroke: #604d8d;stroke-width: 2 } 
		.shp1 { fill: #ffffff } 
	</style><g id="Hire Help - 4 - Active" clip-path="url(#cp1)"><g id="Hyer Standard"><g id="Group 18"><g id="Business/Active/No Fees"><g id="Group 37"><path id="Oval Copy" class="shp0" d="M63 125C97.52 125 125.5 97.02 125.5 62.5C125.5 27.98 97.52 0 63 0C28.48 0 0.5 27.98 0.5 62.5C0.5 97.02 28.48 125 63 125Z"></path><g id="Icons/No Fees"><g id="Unknown-15"><path id="Shape" fill-rule="evenodd" class="shp1" d="M73.99 67.28L41.6 67.28C40.52 67.28 39.67 66.44 39.67 65.35C39.67 64.27 40.52 63.42 41.6 63.42L73.99 63.42C75.07 63.42 75.92 64.27 75.92 65.35C75.92 66.44 75 67.28 73.99 67.28ZM76 57.71C76 58.79 75.15 59.64 74.07 59.64L56.02 59.64C54.94 59.64 54.1 58.79 54.1 57.71C54.1 56.63 54.94 55.78 56.02 55.78L74.15 55.78C75.23 55.78 76.07 56.63 76 57.71ZM80.16 87.82L80.16 83.26C81.47 81.64 82.78 80.02 84.02 78.32L84.02 87.82C84.02 92.37 80.32 96 75.84 96L39.67 96C35.12 96 31.5 92.29 31.5 87.82L31.5 38.11C31.5 33.63 35.2 29.92 39.67 30C39.75 30 67.13 30 67.13 30C67.21 30 67.28 30 67.36 30C67.44 30 67.44 30 67.44 30C67.51 30 67.59 30.08 67.67 30.08C67.75 30.08 67.75 30.08 67.75 30.08C67.82 30.08 67.9 30.16 67.98 30.16C68.05 30.16 68.05 30.16 68.05 30.16C68.13 30.23 68.21 30.23 68.29 30.31C68.36 30.39 68.36 30.39 68.44 30.46L83.71 44.9C83.79 44.9 83.79 44.98 83.86 45.05C83.86 45.13 83.86 45.13 83.86 45.13C83.94 45.21 83.94 45.28 84.02 45.36C84.02 45.44 84.1 45.52 84.1 45.59C84.1 45.67 84.1 45.67 84.1 45.67C84.1 45.75 84.17 45.83 84.17 45.9C84.17 45.98 84.17 52.23 84.17 52.31C84.02 52.46 83.94 52.62 83.86 52.77C83.48 53.31 81.86 56.09 80.78 57.79C80.62 57.94 80.47 58.18 80.39 58.33C80.32 58.48 80.32 58.56 80.24 58.64L80.24 48.22L73.38 48.22C68.83 48.22 65.2 44.51 65.2 40.04L65.2 33.78L39.67 33.78C37.28 33.78 35.36 35.71 35.36 38.11L35.36 87.82C35.36 90.21 37.28 92.14 39.67 92.14L75.84 92.14C78.23 92.14 80.16 90.21 80.16 87.82ZM45.69 41.66C45.69 41.43 45.69 41.12 45.69 40.89C45.69 40.34 45.84 40.19 46.38 40.19C46.54 40.19 46.77 40.19 46.92 40.19C48.16 40.11 48.16 40.11 48.16 41.35C48.16 42.2 48.16 42.2 49.01 42.35C49.62 42.43 50.24 42.66 50.86 42.89C51.24 42.97 51.32 43.2 51.24 43.59C51.09 44.05 50.93 44.59 50.78 45.13C50.63 45.59 50.47 45.67 50.01 45.44C49.01 44.98 48.08 44.82 47 44.9C46.77 44.9 46.46 44.98 46.23 45.05C45.38 45.44 45.23 46.44 46 47.06C46.38 47.37 46.85 47.6 47.31 47.76C48.16 48.06 48.93 48.37 49.7 48.76C52.17 50.07 52.86 53.08 51.17 55.17C50.55 55.94 49.78 56.48 48.85 56.71C48.47 56.86 48.31 57.1 48.31 57.48C48.31 57.87 48.31 58.33 48.31 58.72C48.31 59.1 48.16 59.33 47.77 59.33C47.39 59.33 46.92 59.33 46.46 59.33C46.08 59.33 45.84 59.1 45.84 58.72C45.84 58.41 45.84 58.1 45.84 57.79C45.84 57.17 45.77 57.1 45.15 57.02C44.3 56.94 43.53 56.79 42.76 56.4C42.22 56.09 42.14 55.94 42.3 55.32C42.45 54.86 42.53 54.39 42.68 53.93C42.84 53.39 42.99 53.31 43.45 53.54C44.22 54.01 45.15 54.24 46.08 54.32C46.62 54.39 47.23 54.32 47.77 54.08C48.85 53.62 48.93 52.39 48.08 51.69C47.77 51.46 47.46 51.31 47.08 51.15C46.23 50.77 45.23 50.46 44.38 49.99C42.99 49.22 42.07 48.06 42.14 46.37C42.3 44.44 43.3 43.28 45.07 42.58C45.77 42.35 45.77 42.35 45.69 41.66ZM71.45 75L41.53 75C40.45 75 39.6 74.15 39.6 73.07C39.6 71.99 40.45 71.14 41.53 71.14L73.3 71.14C72.99 71.84 72.6 72.53 72.3 73.23C71.99 73.85 71.76 74.46 71.45 75ZM41.53 78.86L69.83 78.86C69.29 80.18 68.83 81.41 68.44 82.72L41.6 82.72C40.52 82.72 39.67 81.87 39.67 80.79C39.67 79.71 40.52 78.86 41.53 78.86ZM101.29 53.85L91.96 69.99C91.88 70.14 91.73 70.14 91.65 70.14C90.34 69.83 89.8 68.44 90.42 67.36L98.44 53.31L96.82 52.39C96.59 52.85 96.28 53.24 96.05 53.7C94.66 56.01 93.27 58.25 91.96 60.57C91.88 60.72 91.81 60.8 91.73 60.88L90.03 63.66C89.96 63.81 89.96 63.89 89.88 63.97C89.57 64.43 89.19 64.97 88.88 65.51L88.8 65.66C84.87 71.92 80.7 77.94 75.84 83.49C74.84 84.65 73.84 85.73 72.6 86.66C72.14 86.97 71.6 87.43 71.06 87.12C70.52 86.81 70.68 86.12 70.75 85.58C70.83 85.12 70.99 84.65 71.06 84.19C72.06 80.87 73.45 77.71 75 74.54C77.31 69.83 79.85 65.2 82.48 60.65L82.78 60.41C82.86 60.26 82.94 60.11 83.02 59.95C83.09 59.8 83.17 59.64 83.25 59.57L84.94 56.71C84.94 56.63 85.02 56.63 85.02 56.55C87.1 53.24 89.03 49.92 91.34 46.75C91.96 45.9 92.66 45.05 93.5 44.36C94.74 43.36 95.74 43.28 97.13 44.05C98.67 45.05 99.21 46.13 98.9 47.68C98.9 47.91 98.83 48.14 98.75 48.37C98.52 49.07 98.29 49.68 97.98 50.38L99.75 51.38L100.83 52C101.52 52.39 101.68 53.24 101.29 53.85Z"></path></g></g></g></g></g></g></g></svg>