<svg xmlns="http://www.w3.org/2000/svg" viewBox="0 0 128 127" width="128" height="127"><defs><clipPath clipPathUnits="userSpaceOnUse" id="cp1"><path d="M-927 -2571L513 -2571L513 2814L-927 2814Z"></path></clipPath></defs><style>
		tspan { white-space:pre }
		.shp0 { fill: #604d8d } 
		.shp1 { fill: none;stroke: #604d8d;stroke-width: 2 } 
	</style><g id="Hire Help - 4 - Static" clip-path="url(#cp1)"><g id="Hyer Standard"><g id="Group 18"><g id="Business/Static/Payment Processing"><g id="Group 35"><g id="Icons/Payment Processing"><g id="Unknown-18"><path id="Shape" fill-rule="evenodd" class="shp0" d="M83.25 61.14C83.25 71.76 74.62 80.41 64 80.41C53.39 80.41 44.75 71.76 44.75 61.14C44.75 50.51 53.38 41.87 64 41.87C74.62 41.87 83.25 50.51 83.25 61.14ZM80.5 61.14C80.5 52.03 73.1 44.62 64 44.62C54.9 44.62 47.5 52.03 47.5 61.14C47.5 70.24 54.9 77.65 64 77.65C73.1 77.65 80.5 70.24 80.5 61.14ZM100.5 42.58L100.5 79.69C100.5 83.32 97.55 86.27 93.92 86.27L80.46 86.27L80.46 83.52L93.92 83.52C96.03 83.52 97.75 81.8 97.75 79.69L97.75 42.58C97.75 40.47 96.03 38.75 93.92 38.75L34.08 38.75C31.97 38.75 30.25 40.47 30.25 42.58L30.25 79.69C30.25 81.8 31.97 83.52 34.09 83.52L47.54 83.52L47.54 86.27L34.09 86.27C30.46 86.27 27.5 83.32 27.5 79.69L27.5 42.58C27.5 38.95 30.46 36 34.08 36L93.92 36C97.55 36 100.5 38.95 100.5 42.58ZM62.47 54.36C62.02 54.82 61.8 55.45 61.8 56.25C61.8 56.99 62.02 57.59 62.45 58.04C62.88 58.49 63.68 58.95 64.85 59.43C66.02 59.89 66.98 60.34 67.73 60.75C68.49 61.17 69.13 61.64 69.65 62.16C70.16 62.68 70.56 63.29 70.83 63.95C71.11 64.63 71.25 65.41 71.24 66.3C71.24 67.97 70.72 69.32 69.69 70.36C68.65 71.4 67.22 72.01 65.4 72.2L65.4 75.12L63.07 75.12L63.07 72.21C61.06 72 59.51 71.28 58.4 70.07C57.3 68.86 56.75 67.25 56.75 65.24L60.99 65.24C60.99 66.41 61.27 67.31 61.82 67.93C62.38 68.55 63.17 68.86 64.21 68.86C65.07 68.86 65.75 68.64 66.25 68.18C66.75 67.72 67 67.11 67 66.34C67 65.53 66.77 64.89 66.33 64.42C65.88 63.94 65.13 63.5 64.06 63.1C62.99 62.69 62.07 62.3 61.3 61.9C60.51 61.51 59.86 61.05 59.31 60.53C58.76 60.02 58.33 59.41 58.02 58.72C57.71 58.02 57.56 57.19 57.56 56.23C57.56 54.58 58.09 53.22 59.14 52.16C60.2 51.1 61.61 50.48 63.36 50.31L63.36 47.16L65.71 47.16L65.71 50.35C67.44 50.6 68.8 51.31 69.77 52.52C70.76 53.72 71.25 55.28 71.25 57.19L67 57.19C67 56.01 66.76 55.13 66.28 54.55C65.79 53.96 65.14 53.67 64.33 53.67C63.53 53.67 62.91 53.9 62.47 54.36ZM34.8 79.55L34.8 76.8L42.28 76.8L42.28 79.55L34.8 79.55ZM42.28 45.47L34.8 45.47L34.8 42.72L42.28 42.72L42.28 45.47ZM85.72 76.8L93.2 76.8L93.2 79.55L85.72 79.55L85.72 76.8ZM93.2 42.72L93.2 45.47L85.72 45.47L85.72 42.72L93.2 42.72ZM54.07 83.52L56.82 83.52L56.82 94.94L54.07 94.94L54.07 83.52ZM71.18 83.52L73.93 83.52L73.93 94.94L71.18 94.94L71.18 83.52ZM62.62 83.52L65.38 83.52L65.38 101L62.62 101L62.62 83.52Z"></path></g></g><path id="Oval Copy 7" class="shp1" d="M64 126C98.52 126 126.5 98.02 126.5 63.5C126.5 28.98 98.52 1 64 1C29.48 1 1.5 28.98 1.5 63.5C1.5 98.02 29.48 126 64 126Z"></path></g></g></g></g></g></svg>