<svg xmlns="http://www.w3.org/2000/svg" viewBox="0 0 107 108" width="107" height="108"><defs><clipPath clipPathUnits="userSpaceOnUse" id="cp1"><path d="M-882 -901L558 -901L558 4484L-882 4484Z"></path></clipPath></defs><style>
		tspan { white-space:pre }
		.shp0 { fill: none;stroke: #604d8d;stroke-width: 2 } 
		.shp1 { fill: #604d8d;stroke: #604d8d } 
		.shp2 { fill: #604d8d } 
	</style><g id="Hire Help - 4 - Static" clip-path="url(#cp1)"><g id="Ready to Try?"><g id="Create Profile"><g id="Business/Static/Create Profile"><g id="Group 28"><path id="Oval Copy 10" class="shp0" d="M53.5 106C82.49 106 106 82.49 106 53.5C106 24.5 82.49 1 53.5 1C24.51 1 1 24.5 1 53.5C1 82.49 24.51 106 53.5 106Z"></path><g id="Unknown-40"><path id="Shape" fill-rule="evenodd" class="shp1" d="M82 73.7C82 79.38 77.39 84 71.73 84C67.75 84 64.3 81.71 62.6 78.37L25 78.37L25 77.21C25 65.09 33.03 54.87 43.88 51.95C38.96 49.57 35.56 44.54 35.56 38.71C35.56 30.6 42.14 24 50.23 24C58.32 24 64.9 30.6 64.9 38.71C64.9 44.55 61.48 49.58 56.56 51.96C62.76 53.62 68.18 57.68 71.64 63.41C71.67 63.41 71.7 63.41 71.73 63.41C77.39 63.41 82 68.02 82 73.7ZM50.23 51.11C57.05 51.11 62.59 45.55 62.59 38.71C62.59 31.87 57.05 26.31 50.23 26.31C43.41 26.31 37.86 31.87 37.86 38.71C37.86 45.55 43.41 51.11 50.23 51.11ZM27.33 76.06L61.75 76.06C61.57 75.3 61.47 74.51 61.47 73.7C61.47 68.93 64.73 64.92 69.12 63.76C64.87 57.33 57.83 53.42 50.23 53.42C37.96 53.42 27.91 63.47 27.33 76.06L27.33 76.06ZM79.7 73.7C79.7 69.3 76.13 65.71 71.73 65.71C67.34 65.71 63.77 69.3 63.77 73.7C63.77 78.11 67.34 81.69 71.73 81.69C76.13 81.69 79.7 78.11 79.7 73.7Z"></path><path id="Path" class="shp2" d="M75.87 72.87L73.13 72.87L73.13 70.13C73.13 69.51 72.63 69 72 69C71.37 69 70.87 69.51 70.87 70.13L70.87 72.87L68.13 72.87C67.51 72.87 67 73.37 67 74C67 74.63 67.51 75.13 68.13 75.13L70.87 75.13L70.87 77.87C70.87 78.49 71.37 79 72 79C72.63 79 73.13 78.49 73.13 77.87L73.13 75.13L75.87 75.13C76.49 75.13 77 74.63 77 74C77 73.37 76.49 72.87 75.87 72.87Z"></path></g></g></g></g></g></g></svg>