<svg xmlns="http://www.w3.org/2000/svg" viewBox="0 0 126 125" width="126" height="125"><defs><clipPath clipPathUnits="userSpaceOnUse" id="cp1"><path d="M-659 -2572L781 -2572L781 2813L-659 2813Z"></path></clipPath></defs><style>
		tspan { white-space:pre }
		.shp0 { fill: #604d8d;stroke: #604d8d;stroke-width: 2 } 
		.shp1 { fill: #ffffff } 
	</style><g id="Hire Help - 4 - Active" clip-path="url(#cp1)"><g id="Hyer Standard"><g id="Group 18"><g id="Business/Active/Scale Workforce"><g id="Group 34"><path id="Oval Copy 2" class="shp0" d="M62.5 125C97.02 125 125 97.02 125 62.5C125 27.98 97.02 0 62.5 0C27.98 0 0 27.98 0 62.5C0 97.02 27.98 125 62.5 125Z"></path><g id="Icons/Scale Workforce"><g id="Group 14"><path id="Shape" fill-rule="evenodd" class="shp1" d="M97.5 91.6C97.5 92.3 96.94 93 96.1 93L28.9 93C28.2 93 27.5 92.44 27.5 91.6C27.5 86.71 30.45 82.52 34.65 80.57C32.83 79.17 31.57 76.79 31.57 74.28C31.57 69.81 35.22 66.18 39.7 66.18C44.19 66.18 47.84 69.81 47.84 74.28C47.84 76.79 46.58 79.03 44.75 80.57C45.6 80.99 46.44 81.4 47.28 82.1C48.82 80.29 50.79 78.89 52.89 78.05C50.37 76.24 48.82 73.44 48.82 70.23C48.82 64.92 53.17 60.59 58.5 60.59C63.83 60.59 68.18 64.92 68.18 70.23C68.18 73.44 66.5 76.37 64.11 78.05C65.38 78.61 66.5 79.31 67.62 80.15C69.44 78.05 71.83 76.51 74.35 75.54C71.27 73.58 69.16 70.09 69.16 66.18C69.16 60.03 74.21 55 80.39 55C86.56 55 91.61 60.03 91.61 66.18C91.61 70.09 89.5 73.58 86.42 75.54C92.87 78.05 97.5 84.2 97.5 91.6ZM80.39 74.42C85.01 74.42 88.66 70.79 88.66 66.18C88.66 61.57 85.01 57.93 80.39 57.93C75.76 57.93 72.11 61.71 72.11 66.18C72.11 70.79 75.76 74.42 80.39 74.42ZM58.5 76.93C62.15 76.93 65.24 73.86 65.24 70.23C65.24 66.6 62.15 63.52 58.5 63.52C54.85 63.52 51.77 66.6 51.77 70.23C51.77 73.86 54.85 76.93 58.5 76.93ZM39.56 79.31C42.37 79.31 44.75 77.07 44.75 74.14C44.75 71.35 42.37 68.97 39.56 68.97C36.76 68.97 34.37 71.21 34.37 74.14C34.37 77.07 36.76 79.31 39.56 79.31ZM30.45 90.07L43.77 90.07C44.05 88.11 44.61 86.15 45.6 84.48C43.91 82.94 41.81 82.24 39.56 82.24C34.93 82.24 31.15 85.6 30.45 90.07ZM46.72 90.21L63.41 90.21C63.55 87.41 64.53 84.76 65.94 82.52C63.83 80.85 61.17 79.87 58.5 79.87C52.47 79.87 47.42 84.34 46.72 90.21ZM94.55 90.07C93.85 82.94 87.68 77.35 80.39 77.35C73.09 77.35 66.92 82.94 66.22 90.07L94.55 90.07Z"></path><path id="Path" class="shp1" d="M86.48 32.17C86.64 30.9 85.73 29.78 84.45 29.62L71.79 28.02C70.51 27.86 69.38 28.76 69.22 30.04C69.06 31.32 69.97 32.44 71.25 32.6L78.15 33.45L60.51 47.09L57.52 42.03C57.15 41.45 56.56 40.97 55.87 40.86C55.17 40.7 54.42 40.91 53.89 41.34L35.45 55.57C34.39 56.42 34.17 57.96 35.03 59.03C35.45 59.56 36.04 59.88 36.68 59.99C37.32 60.04 37.97 59.88 38.5 59.51L54.58 47.04L57.58 52.1C57.95 52.69 58.54 53.17 59.23 53.28C59.93 53.44 60.67 53.22 61.21 52.8L81.19 37.34L80.34 44.43C80.28 45.07 80.44 45.66 80.82 46.14C81.19 46.62 81.73 46.93 82.37 46.99C82.95 47.04 83.6 46.88 84.08 46.51C84.56 46.14 84.88 45.55 84.93 44.96L86.48 32.17Z"></path></g></g></g></g></g></g></g></svg>