<svg xmlns="http://www.w3.org/2000/svg" viewBox="0 0 126 125" width="126" height="125"><defs><clipPath clipPathUnits="userSpaceOnUse" id="cp1"><path d="M-119 -2572L1321 -2572L1321 2813L-119 2813Z"></path></clipPath></defs><style>
		tspan { white-space:pre }
		.shp0 { fill: #604d8d;stroke: #604d8d;stroke-width: 2 } 
		.shp1 { fill: #ffffff } 
	</style><g id="Hire Help - 4 - Active" clip-path="url(#cp1)"><g id="Hyer Standard"><g id="Group 18"><g id="Business/Active/Seamless Hiring"><g id="Group 15"><path id="Oval" class="shp0" d="M62.5 125C97.02 125 125 97.02 125 62.5C125 27.98 97.02 0 62.5 0C27.98 0 0 27.98 0 62.5C0 97.02 27.98 125 62.5 125Z"></path><g id="Seamless Hiring"><g id="Unknown-11"><path id="Shape" fill-rule="evenodd" class="shp1" d="M109.89 74.16C110.04 74.54 110.04 74.97 109.87 75.35C109.7 75.73 109.4 76.03 109.01 76.17L96.79 80.88C96.61 80.95 96.43 80.98 96.24 80.98C95.61 80.98 95.04 80.6 94.81 80.01L93.9 77.76L91.42 78.86C92.36 80.88 91.88 83.27 90.25 84.78C89.06 85.86 87.5 86.44 85.9 86.39C85.83 86.39 85.77 86.38 85.7 86.38C84.64 89.2 81.95 91.08 78.95 91.1C78.65 91.1 78.35 91.07 78.06 91.03C77.12 92.84 75.45 94.16 73.48 94.64C72.95 94.77 72.4 94.84 71.86 94.85C71.4 96.36 70.34 97.6 68.92 98.28C67.98 98.75 66.94 99 65.88 99C64.62 99.03 63.39 98.63 62.38 97.86C61.07 96.81 59.89 95.88 59.12 95.26C58.29 96.45 57.15 97.39 55.83 97.97C55.35 98.18 54.83 98.28 54.31 98.28C53.81 98.28 53.31 98.18 52.85 97.99C51.59 97.37 50.55 96.37 49.87 95.14C48.78 95.35 47.64 95.18 46.66 94.65C45.56 94.01 44.68 93.04 44.15 91.87C43.63 92.1 43.08 92.21 42.51 92.22C42.15 92.22 41.78 92.17 41.43 92.07C39.75 91.35 38.46 89.94 37.9 88.19C36.22 87.45 32.22 85.29 32.22 81.39C32.22 81.22 32.24 81.06 32.29 80.91C32.5 80.32 32.74 79.75 33.02 79.2L31.6 78.22L30.7 80.1C30.52 80.48 30.19 80.77 29.8 80.9C29.64 80.96 29.48 80.98 29.31 80.98C29.06 80.98 28.82 80.93 28.6 80.81L16.84 74.73C16.08 74.34 15.78 73.41 16.17 72.65L29.99 45.22C30.17 44.85 30.5 44.57 30.89 44.45C31.28 44.32 31.7 44.35 32.07 44.54L43.26 50.28C44 50.66 44.31 51.57 43.95 52.33L42.83 54.68L45.27 56.06C46.71 55.18 49.84 53.28 51.85 52.15C54.73 50.51 56.87 50.52 59.14 52.27C62.37 50.19 65.16 49.1 68.2 50.47C70.11 51.34 76.88 53.97 78.8 54.72L83.97 53.01L83.16 50.97C83 50.58 83.01 50.14 83.18 49.76C83.35 49.37 83.67 49.08 84.07 48.93L96.52 44.46C97.3 44.18 98.16 44.57 98.47 45.34L109.89 74.15L109.89 74.16ZM40.51 52.35L32.04 48.01L19.61 72.67L28.6 77.32L40.51 52.35ZM38.13 84.85C38.54 83.44 39.13 81.37 39.72 79.46C39.83 79.22 39.83 78.94 39.72 78.7C39.61 78.46 39.4 78.27 39.14 78.2C38.49 77.82 37.68 77.88 37.09 78.35C36.38 79.37 35.78 80.47 35.32 81.62C35.47 83.02 36.89 84.15 38.13 84.85ZM43.78 88.5C45.04 86.53 46.81 83.67 47.08 83.05C47.1 83 47.14 82.97 47.16 82.92C47.17 82.9 47.17 82.88 47.18 82.86C47.58 82.22 47.92 81.36 47.31 80.93C46.38 80.42 45.21 80.68 44.57 81.53C43.22 83.34 41.96 85.22 40.82 87.17C41.16 87.98 41.73 88.91 42.32 89.09C42.78 89.23 43.39 88.82 43.78 88.5ZM52.91 86.34C53.18 85.62 52.91 84.81 52.27 84.38C51.79 84 51.18 83.84 50.57 83.95C50.31 83.99 50.07 84.12 49.9 84.32C49.49 85.23 47.53 88.36 46.62 89.8C46.87 90.66 47.4 91.41 48.13 91.92C48.59 92.16 49.13 92.19 49.62 92.02L52.91 86.34ZM57.53 91.79C57.74 91.15 57.69 90.45 57.38 89.86C56.91 89.39 56.26 89.14 55.6 89.16L52.48 93.44C52.97 94.26 53.83 95.45 54.64 95.11C55.98 94.4 57.01 93.22 57.53 91.79ZM88.06 82.58C88.56 82.15 88.83 81.53 88.82 80.88C88.81 80.22 88.51 79.61 88 79.2C86.43 77.42 79.88 71.09 78.44 69.69C73.41 67.84 68.54 65.59 63.87 62.98L62.25 64.04C61.88 65.74 60.91 67.25 59.52 68.28C58.52 69.06 57.23 69.36 56 69.1C54.5 68.92 53.15 68.1 52.28 66.86C51.46 65.1 51.36 63.09 52.02 61.25C52.49 58.42 54.02 55.88 56.3 54.15C55.48 53.86 54.66 54.1 53.37 54.83C50.79 56.3 46.15 59.15 46.1 59.17C45.62 59.47 45.03 59.48 44.54 59.2L41.49 57.47L32.95 75.39L34.6 76.53C36.06 74.81 38.52 74.34 40.51 75.41C41.87 76.02 42.78 77.35 42.87 78.85C44.61 77.35 47.12 77.16 49.07 78.38C49.89 78.96 50.47 79.83 50.66 80.82C51.87 80.77 53.05 81.12 54.04 81.83C55.44 82.76 56.22 84.4 56.08 86.08C57.56 86.15 58.95 86.85 59.88 88.02C60.73 89.33 60.98 90.95 60.56 92.45C61.26 93.01 62.68 94.13 64.31 95.44C65.3 96.03 66.53 96.06 67.55 95.5C68.17 95.22 68.65 94.7 68.88 94.06C68.67 93.93 68.48 93.78 68.31 93.61L62.82 88.11C62.43 87.71 62.28 87.14 62.42 86.61C62.57 86.07 62.98 85.65 63.52 85.51C64.05 85.37 64.62 85.52 65.01 85.91L70.49 91.42C71.18 91.81 72 91.88 72.74 91.63C73.81 91.36 74.72 90.67 75.26 89.71C73.08 87.73 68.07 82.7 67.86 82.48C67.27 81.87 67.28 80.91 67.87 80.31C68.47 79.71 69.43 79.7 70.04 80.29C70.1 80.34 75.51 85.79 77.51 87.57C78.35 88.09 79.39 88.16 80.29 87.76C81.36 87.38 82.23 86.58 82.71 85.54C81.29 84.59 75.04 78.43 73.8 77.21C73.24 76.6 73.26 75.66 73.83 75.07C74.41 74.48 75.35 74.45 75.96 75C78.75 77.75 83.51 82.35 84.42 82.96C84.55 83.04 84.68 83.11 84.83 83.15L84.85 83.15C84.86 83.15 84.87 83.16 84.89 83.16C85.98 83.48 87.15 83.26 88.06 82.58L88.06 82.58ZM92.74 74.87L85.13 55.89L79.24 57.83C78.9 57.94 78.54 57.94 78.21 57.81C77.85 57.67 69.24 54.34 66.94 53.3C65.56 52.68 64.11 52.74 60.75 54.91L60.09 55.34C57.39 57.05 56.04 57.92 55.02 62.02C54.5 64.11 54.74 64.96 54.93 65.27C55.17 65.68 55.74 65.85 56.64 66.07C57.03 66.14 57.43 66.03 57.73 65.76C58.61 65.1 59.18 64.1 59.3 63C59.34 62.53 59.59 62.1 59.99 61.84L62.96 59.88C63.43 59.57 64.04 59.55 64.54 59.82C64.64 59.88 75.05 65.6 79.61 66.8C79.87 66.87 80.1 67 80.29 67.18C80.58 67.47 86.89 73.54 89.53 76.31L92.74 74.87ZM106.44 73.84L96.15 47.88L86.62 51.31L97.1 77.44L106.44 73.84ZM61.46 28.55C61.46 27.69 62.15 27 63 27C63.85 27 64.54 27.69 64.54 28.55L64.54 37.58C64.54 38.44 63.85 39.13 63 39.13C62.15 39.13 61.46 38.44 61.46 37.58L61.46 28.55ZM42.29 37.58C41.85 37.23 41.63 36.67 41.72 36.12C41.81 35.56 42.19 35.1 42.71 34.91C43.24 34.71 43.83 34.82 44.25 35.19L51.18 40.94C51.61 41.29 51.81 41.84 51.72 42.39C51.63 42.94 51.25 43.39 50.74 43.59C50.22 43.78 49.64 43.68 49.21 43.33L42.29 37.58ZM74.27 41.99C74.31 41.58 74.5 41.2 74.82 40.94L81.75 35.19C82.17 34.82 82.76 34.71 83.29 34.91C83.81 35.1 84.19 35.56 84.28 36.12C84.37 36.67 84.15 37.23 83.72 37.58L76.79 43.33C76.47 43.59 76.06 43.72 75.66 43.68C75.25 43.64 74.87 43.44 74.61 43.12C74.35 42.8 74.23 42.4 74.27 41.99Z"></path></g></g></g></g></g></g></g></svg>