<svg xmlns="http://www.w3.org/2000/svg" viewBox="0 0 127 127" width="127" height="127"><defs><clipPath clipPathUnits="userSpaceOnUse" id="cp1"><path d="M-118 -2571L1322 -2571L1322 2814L-118 2814Z"></path></clipPath></defs><style>
		tspan { white-space:pre }
		.shp0 { fill: #604d8d } 
		.shp1 { fill: none;stroke: #604d8d;stroke-width: 2 } 
	</style><g id="Hire Help - 4 - Static" clip-path="url(#cp1)"><g id="Hyer Standard"><g id="Group 18"><g id="Business/Static/Hiring"><g id="Group 15"><g id="Seamless Hiring"><g id="Unknown-11"><path id="Shape" fill-rule="evenodd" class="shp0" d="M110.89 75.16C111.04 75.54 111.04 75.97 110.87 76.35C110.7 76.73 110.39 77.03 110.01 77.17L97.79 81.88C97.61 81.95 97.43 81.98 97.24 81.98C96.61 81.98 96.04 81.6 95.81 81.01L94.9 78.76L92.42 79.86C93.36 81.88 92.88 84.27 91.25 85.78C90.06 86.86 88.5 87.44 86.9 87.39C86.83 87.39 86.77 87.38 86.7 87.38C85.64 90.2 82.95 92.08 79.95 92.1C79.65 92.1 79.35 92.07 79.06 92.03C78.12 93.84 76.45 95.16 74.48 95.64C73.95 95.77 73.4 95.84 72.86 95.85C72.4 97.36 71.34 98.6 69.92 99.28C68.98 99.75 67.94 100 66.88 100C65.62 100.03 64.39 99.63 63.38 98.86C62.07 97.81 60.89 96.88 60.12 96.26C59.29 97.45 58.15 98.39 56.83 98.97C56.35 99.18 55.83 99.28 55.31 99.28C54.81 99.28 54.31 99.18 53.85 98.99C52.59 98.37 51.55 97.37 50.87 96.14C49.78 96.35 48.64 96.18 47.66 95.65C46.56 95.01 45.68 94.04 45.15 92.87C44.63 93.1 44.08 93.21 43.51 93.22C43.15 93.22 42.78 93.17 42.43 93.07C40.75 92.35 39.46 90.94 38.9 89.19C37.22 88.45 33.22 86.29 33.22 82.39C33.22 82.22 33.24 82.06 33.29 81.91C33.5 81.32 33.74 80.75 34.02 80.2L32.6 79.22L31.7 81.1C31.52 81.48 31.19 81.77 30.8 81.9C30.64 81.96 30.48 81.98 30.31 81.98C30.06 81.98 29.82 81.93 29.6 81.81L17.84 75.73C17.08 75.34 16.78 74.41 17.17 73.65L30.99 46.22C31.17 45.85 31.5 45.57 31.89 45.45C32.28 45.32 32.7 45.35 33.07 45.54L44.26 51.28C45 51.66 45.31 52.57 44.95 53.33L43.83 55.68L46.27 57.06C47.71 56.18 50.84 54.28 52.85 53.15C55.73 51.51 57.87 51.52 60.14 53.27C63.37 51.19 66.16 50.1 69.2 51.47C71.11 52.34 77.88 54.97 79.8 55.72L84.97 54.01L84.16 51.97C84 51.58 84.01 51.14 84.18 50.76C84.35 50.37 84.67 50.08 85.07 49.93L97.52 45.46C98.3 45.18 99.16 45.57 99.47 46.34L110.89 75.15L110.89 75.16ZM41.51 53.35L33.04 49.01L20.61 73.67L29.6 78.32L41.51 53.35ZM39.13 85.85C39.54 84.44 40.13 82.37 40.72 80.46C40.83 80.22 40.83 79.94 40.72 79.7C40.61 79.46 40.4 79.27 40.14 79.2C39.49 78.82 38.68 78.88 38.09 79.35C37.38 80.37 36.78 81.47 36.32 82.62C36.47 84.02 37.89 85.15 39.13 85.85ZM44.79 89.5C46.04 87.53 47.81 84.67 48.08 84.05C48.1 84 48.14 83.97 48.16 83.92C48.17 83.9 48.17 83.88 48.18 83.86C48.58 83.22 48.92 82.36 48.31 81.93C47.38 81.42 46.21 81.68 45.57 82.53C44.22 84.34 42.96 86.22 41.82 88.17C42.15 88.98 42.73 89.91 43.32 90.09C43.78 90.23 44.39 89.82 44.79 89.5ZM53.91 87.34C54.18 86.62 53.91 85.81 53.27 85.38C52.79 85 52.18 84.84 51.57 84.95C51.31 84.99 51.07 85.12 50.9 85.32C50.49 86.23 48.53 89.36 47.62 90.8C47.87 91.66 48.4 92.41 49.13 92.92C49.59 93.16 50.13 93.19 50.62 93.02L53.91 87.34ZM58.53 92.79C58.74 92.15 58.69 91.45 58.38 90.86C57.91 90.39 57.26 90.14 56.6 90.16L53.48 94.44C53.97 95.26 54.83 96.45 55.64 96.11C56.98 95.4 58.01 94.22 58.53 92.79ZM89.06 83.58C89.56 83.15 89.83 82.53 89.82 81.88C89.81 81.22 89.51 80.61 89 80.2C87.43 78.42 80.88 72.09 79.44 70.69C74.41 68.84 69.54 66.59 64.87 63.98L63.25 65.04C62.88 66.74 61.91 68.25 60.52 69.28C59.52 70.06 58.23 70.36 57 70.1C55.5 69.92 54.15 69.1 53.28 67.86C52.46 66.1 52.36 64.09 53.02 62.25C53.49 59.42 55.02 56.88 57.3 55.15C56.48 54.86 55.66 55.1 54.37 55.83C51.79 57.3 47.15 60.15 47.1 60.17C46.62 60.47 46.03 60.48 45.54 60.2L42.49 58.47L33.95 76.39L35.6 77.53C37.06 75.81 39.52 75.34 41.51 76.41C42.87 77.02 43.78 78.35 43.87 79.85C45.61 78.35 48.12 78.16 50.07 79.38C50.89 79.96 51.47 80.83 51.66 81.82C52.87 81.77 54.05 82.12 55.03 82.83C56.44 83.76 57.22 85.4 57.08 87.08C58.56 87.15 59.95 87.85 60.88 89.02C61.73 90.33 61.98 91.95 61.56 93.45C62.26 94.01 63.68 95.13 65.31 96.44C66.3 97.03 67.53 97.06 68.55 96.5C69.17 96.22 69.65 95.7 69.88 95.06C69.67 94.93 69.48 94.78 69.31 94.61L63.83 89.11C63.44 88.71 63.28 88.14 63.42 87.61C63.57 87.07 63.98 86.65 64.52 86.51C65.05 86.37 65.62 86.52 66.01 86.91L71.49 92.42C72.18 92.81 73 92.88 73.74 92.63C74.81 92.36 75.72 91.67 76.26 90.71C74.08 88.73 69.07 83.7 68.86 83.48C68.27 82.87 68.28 81.91 68.87 81.31C69.47 80.71 70.43 80.7 71.04 81.29C71.1 81.34 76.51 86.79 78.51 88.57C79.35 89.09 80.39 89.16 81.29 88.76C82.36 88.38 83.23 87.58 83.71 86.54C82.29 85.59 76.04 79.43 74.8 78.21C74.24 77.6 74.26 76.66 74.83 76.07C75.41 75.48 76.35 75.45 76.96 76C79.75 78.75 84.51 83.35 85.42 83.96C85.55 84.04 85.69 84.11 85.83 84.15L85.85 84.15C85.86 84.15 85.87 84.16 85.89 84.16C86.98 84.48 88.15 84.26 89.06 83.58L89.06 83.58ZM93.74 75.87L86.13 56.89L80.24 58.83C79.9 58.94 79.54 58.94 79.21 58.81C78.85 58.67 70.24 55.34 67.94 54.3C66.56 53.68 65.11 53.74 61.75 55.91L61.09 56.34C58.39 58.05 57.04 58.92 56.02 63.02C55.5 65.11 55.74 65.96 55.93 66.27C56.17 66.68 56.74 66.85 57.64 67.07C58.03 67.14 58.43 67.03 58.73 66.76C59.61 66.1 60.18 65.1 60.3 64C60.34 63.53 60.59 63.1 60.99 62.84L63.96 60.88C64.43 60.57 65.04 60.55 65.54 60.82C65.64 60.88 76.05 66.6 80.61 67.8C80.87 67.87 81.1 68 81.29 68.18C81.58 68.47 87.89 74.54 90.53 77.31L93.74 75.87ZM107.44 74.84L97.15 48.88L87.62 52.31L98.1 78.44L107.44 74.84ZM62.46 29.55C62.46 28.69 63.15 28 64 28C64.85 28 65.54 28.69 65.54 29.55L65.54 38.58C65.54 39.44 64.85 40.13 64 40.13C63.15 40.13 62.46 39.44 62.46 38.58L62.46 29.55ZM43.29 38.58C42.85 38.23 42.63 37.67 42.72 37.12C42.81 36.56 43.19 36.1 43.71 35.91C44.24 35.71 44.83 35.82 45.25 36.19L52.18 41.94C52.61 42.29 52.81 42.84 52.72 43.39C52.63 43.94 52.25 44.39 51.74 44.59C51.22 44.78 50.64 44.68 50.21 44.33L43.29 38.58ZM75.27 42.99C75.31 42.58 75.5 42.2 75.82 41.94L82.75 36.19C83.17 35.82 83.76 35.71 84.29 35.91C84.81 36.1 85.19 36.56 85.28 37.12C85.37 37.67 85.15 38.23 84.72 38.58L77.79 44.33C77.47 44.59 77.06 44.72 76.66 44.68C76.25 44.64 75.87 44.44 75.61 44.12C75.35 43.8 75.23 43.4 75.27 42.99Z"></path></g></g><path id="Oval" class="shp1" d="M63.5 126C98.02 126 126 98.02 126 63.5C126 28.98 98.02 1 63.5 1C28.98 1 1 28.98 1 63.5C1 98.02 28.98 126 63.5 126Z"></path></g></g></g></g></g></svg>