<svg xmlns="http://www.w3.org/2000/svg" xmlns:xlink="http://www.w3.org/1999/xlink" id="Layer_1" x="0px" y="0px" viewBox="0 0 73.6 73.6" style="enable-background:new 0 0 73.6 73.6;" xml:space="preserve"><style type="text/css">	.st0{fill:#406FAA;stroke:#406FAA;stroke-width:2;stroke-miterlimit:10;}	.st1{fill:none;stroke:#FFFFFF;stroke-width:1.7;stroke-linecap:round;stroke-miterlimit:2.6131;}	.st2{fill:none;stroke:#FFFFFF;stroke-width:1.7;stroke-miterlimit:2.6131;}</style><circle class="st0" cx="36.8" cy="36.8" r="34.2"></circle><g>	<line class="st1" x1="35.7" y1="46.2" x2="61.9" y2="46.2"></line>	<polyline class="st2" points="43.3,36.4 47.1,36.4 47.1,42.9 36.8,42.9 36.8,40 36.8,40.6  "></polyline>	<polygon class="st1" points="50.6,36.4 60.8,36.4 60.8,42.9 50.6,42.9  "></polygon>	<rect x="50.6" y="26.4" class="st1" width="10.2" height="6.5"></rect>	<path class="st2" d="M30.3,32.1L30,28.9L40.6,28l0.8,9.7l-10.6,0.8l-0.3-3.3 M21.1,19.1c-0.1,0.9,0,2.3,0.3,2.9  c0.4,0.8,1.3,1.6,2.2,1.8c1.3,0.3,2.4-0.1,2.9-1.4c0.2-0.5,0.4-1.2,0.5-1.8 M23.9,56.7l-0.1-9.9l-5.4-5.6c-0.8-0.9-1.3-2.1-1-3.6  l0.9-8.6c0.5-4.5,5.7-4.5,7.3-1.7l2.9,5.1l5.4-0.4c1.1,0.5,1,2,0.5,2.6l-7.4,1c-0.2,0-0.6-0.2-0.7-0.4c-1.1-1.4-2.1-2.7-3.1-4.1   M24.4,33.1l-0.9,5.3c-0.1,0.3,0,0.6,0.1,0.8l3.2,4.9c0.5,0.5,0.7,1.2,0.7,1.9l-0.6,10.6 M12.9,56.3l3.6-10l0.9-6.6 M20.7,44  c-0.1,1.9-0.5,2.9-1.1,4.1l-3.3,8.3 M27.7,19.2L27.6,17c-0.4-3-6.8-3-6.8,0.5v1.4c0,0.1,0.1,0.2,0.2,0.2l9.7,0.1"></path></g></svg>