<svg xmlns="http://www.w3.org/2000/svg" xmlns:xlink="http://www.w3.org/1999/xlink" id="Layer_1" x="0px" y="0px" viewBox="0 0 73.6 73.6" style="enable-background:new 0 0 73.6 73.6;" xml:space="preserve"><style type="text/css">	.st0{fill:#406FAA;stroke:#406FAA;stroke-width:2;stroke-miterlimit:10;}	.st1{fill:none;stroke:#FFFFFF;stroke-width:1.7;stroke-linecap:round;stroke-linejoin:round;stroke-miterlimit:10;}</style><circle class="st0" cx="36.8" cy="36.8" r="34.2"></circle><g>	<path class="st1" d="M27.5,26.5l23.1-5.7l5.7,23.1l-20.4,5c-1.5,0.4-2.9-0.5-3.3-2L27.5,26.5L27.5,26.5z M29.2,51.1  c2.1-0.5,4.2,0.8,4.7,2.9c0.5,2.1-0.8,4.2-2.9,4.7s-4.2-0.8-4.7-2.9C25.8,53.7,27.1,51.6,29.2,51.1L29.2,51.1z M28.1,47.5  l-6.7-26.7h-6.1 M37.5,53.1l17.8-4.4 M42.9,40.2l-2.4-9.5 M37.3,36.1l3.2-5.4l5.4,3.3"></path>	<path class="st1" d="M30.1,54c0.5,0,0.9,0.4,0.9,0.9s-0.4,0.9-0.9,0.9s-0.9-0.4-0.9-0.9S29.6,54,30.1,54L30.1,54z"></path></g></svg>